<?xml version="1.0" encoding="utf-8"?>
<!-- Generator: Adobe Illustrator 23.0.0, SVG Export Plug-In . SVG Version: 6.00 Build 0)  -->
<svg version="1.1" id="Capa_1" xmlns="http://www.w3.org/2000/svg" xmlns:xlink="http://www.w3.org/1999/xlink" x="0px" y="0px"
	 viewBox="0 0 115 35" style="enable-background:new 0 0 115 35;" xml:space="preserve">
<style type="text/css">
	.st0{fill:#201813;}
	.st1{fill:#AC3826;}
	.st2{fill:#BB5236;}
</style>
<g>
	<path class="st0" d="M38.85,12c0.2,0,0.39,0.04,0.57,0.11c0.18,0.08,0.33,0.18,0.46,0.31c0.13,0.13,0.24,0.28,0.31,0.45
		c0.08,0.17,0.11,0.36,0.11,0.56v3.26c0,0.23-0.05,0.42-0.14,0.59s-0.2,0.33-0.34,0.47c-0.85,0.74-1.71,1.27-2.58,1.58
		c-0.87,0.31-1.78,0.46-2.71,0.46c-0.63-0.01-1.24-0.1-1.83-0.27s-1.15-0.42-1.68-0.73c-0.52-0.31-1-0.69-1.43-1.12
		c-0.43-0.44-0.81-0.92-1.12-1.46c-0.31-0.53-0.56-1.11-0.73-1.72c-0.17-0.61-0.26-1.26-0.26-1.93c0-0.66,0.08-1.3,0.25-1.92
		c0.17-0.62,0.4-1.2,0.71-1.74c0.31-0.54,0.67-1.03,1.1-1.48c0.43-0.44,0.91-0.83,1.44-1.15c0.53-0.32,1.1-0.57,1.71-0.75
		c0.61-0.18,1.25-0.27,1.91-0.27c1.02,0,1.96,0.18,2.81,0.54c0.85,0.36,1.63,0.9,2.35,1.62c0.14,0.15,0.25,0.3,0.32,0.47
		c0.07,0.17,0.1,0.35,0.1,0.53c0,0.19-0.04,0.37-0.12,0.55c-0.08,0.17-0.19,0.33-0.32,0.46c-0.13,0.13-0.29,0.24-0.47,0.32
		c-0.18,0.08-0.37,0.12-0.56,0.12c-0.18,0-0.35-0.03-0.52-0.1c-0.17-0.07-0.32-0.17-0.45-0.31c-0.44-0.44-0.93-0.76-1.46-0.96
		C35.75,8.3,35.2,8.2,34.63,8.2c-0.58,0-1.12,0.11-1.64,0.33c-0.52,0.22-0.97,0.53-1.36,0.92c-0.39,0.39-0.7,0.85-0.93,1.38
		c-0.23,0.53-0.34,1.1-0.34,1.71c0,0.59,0.11,1.15,0.33,1.67c0.22,0.53,0.52,0.99,0.91,1.38c0.39,0.4,0.84,0.71,1.37,0.94
		c0.53,0.23,1.1,0.35,1.72,0.35c0.49,0,0.96-0.06,1.41-0.18c0.45-0.12,0.88-0.35,1.31-0.67v-1.15h-1.17c-0.2,0-0.39-0.04-0.56-0.11
		c-0.17-0.08-0.32-0.18-0.45-0.31c-0.13-0.13-0.23-0.29-0.3-0.46c-0.07-0.18-0.11-0.37-0.11-0.56c0-0.2,0.04-0.38,0.11-0.56
		c0.07-0.17,0.17-0.33,0.3-0.47c0.13-0.14,0.28-0.25,0.45-0.32c0.17-0.08,0.36-0.11,0.56-0.11L38.85,12z"/>
	<path class="st0" d="M54.08,17.62c0.07,0.19,0.11,0.39,0.11,0.59c0,0.17-0.03,0.35-0.1,0.53c-0.07,0.18-0.17,0.34-0.29,0.47
		c-0.13,0.14-0.28,0.25-0.46,0.34c-0.18,0.09-0.39,0.13-0.62,0.13c-0.29,0-0.56-0.08-0.82-0.25c-0.26-0.16-0.44-0.39-0.56-0.68
		l-0.24-0.6h-5.6l-0.23,0.6c-0.12,0.28-0.3,0.51-0.55,0.68c-0.24,0.17-0.51,0.25-0.81,0.25c-0.22,0-0.43-0.04-0.61-0.13
		c-0.18-0.09-0.34-0.2-0.47-0.34c-0.13-0.14-0.23-0.3-0.3-0.47c-0.07-0.18-0.1-0.36-0.1-0.55c0-0.19,0.04-0.38,0.11-0.57l4.33-11.29
		c0.06-0.21,0.16-0.4,0.31-0.57s0.33-0.3,0.55-0.39l0.06-0.02c0.1-0.04,0.2-0.07,0.31-0.08c0.1-0.01,0.19-0.01,0.25-0.01
		c0.09,0,0.18,0.01,0.27,0.03c0.09,0.02,0.17,0.05,0.26,0.08l0.02,0.01c0.09,0.01,0.18,0.07,0.28,0.16c0.1,0.09,0.18,0.17,0.25,0.22
		l0.05,0.05c0.09,0.13,0.16,0.25,0.19,0.35l0.04,0.12L54.08,17.62z M49.93,15.14l-1.63-4.29l-1.64,4.29H49.93z"/>
	<path class="st0" d="M56.53,6.66c0-0.2,0.04-0.39,0.11-0.57c0.08-0.17,0.18-0.33,0.31-0.45c0.13-0.13,0.28-0.23,0.46-0.3
		c0.18-0.07,0.36-0.11,0.56-0.11c0.2,0,0.39,0.04,0.56,0.11c0.17,0.07,0.32,0.17,0.45,0.3c0.13,0.13,0.23,0.28,0.31,0.45
		c0.08,0.17,0.11,0.36,0.11,0.57v10.11l4.91,0.01c0.2,0,0.39,0.04,0.56,0.11c0.17,0.08,0.32,0.18,0.45,0.31
		c0.13,0.13,0.23,0.28,0.3,0.46c0.07,0.17,0.11,0.36,0.11,0.57c0,0.21-0.04,0.4-0.11,0.58c-0.07,0.17-0.17,0.33-0.3,0.45
		c-0.13,0.13-0.28,0.23-0.45,0.29c-0.17,0.07-0.36,0.1-0.56,0.1H57.9c-0.19-0.01-0.37-0.05-0.54-0.13
		c-0.17-0.08-0.32-0.18-0.44-0.31c-0.12-0.13-0.22-0.28-0.29-0.45s-0.11-0.35-0.11-0.55V6.66z"/>
	<path class="st0" d="M68.55,6.66c0-0.2,0.04-0.39,0.11-0.57c0.08-0.17,0.18-0.33,0.31-0.45c0.13-0.13,0.28-0.23,0.46-0.3
		c0.18-0.07,0.36-0.11,0.56-0.11c0.2,0,0.39,0.04,0.56,0.11c0.17,0.07,0.32,0.17,0.45,0.3c0.13,0.13,0.23,0.28,0.31,0.45
		c0.08,0.17,0.11,0.36,0.11,0.57v10.11l4.91,0.01c0.2,0,0.39,0.04,0.56,0.11c0.17,0.08,0.32,0.18,0.45,0.31
		c0.13,0.13,0.23,0.28,0.3,0.46c0.07,0.17,0.11,0.36,0.11,0.57c0,0.21-0.04,0.4-0.11,0.58c-0.07,0.17-0.17,0.33-0.3,0.45
		c-0.13,0.13-0.28,0.23-0.45,0.29c-0.17,0.07-0.36,0.1-0.56,0.1h-6.41c-0.19-0.01-0.37-0.05-0.54-0.13
		c-0.17-0.08-0.32-0.18-0.44-0.31c-0.12-0.13-0.22-0.28-0.29-0.45s-0.11-0.35-0.11-0.55V6.66z"/>
	<path class="st0" d="M88.33,5.24c0.2,0,0.39,0.04,0.57,0.12c0.18,0.08,0.33,0.19,0.46,0.32c0.13,0.14,0.24,0.3,0.31,0.48
		c0.08,0.19,0.11,0.38,0.11,0.59c0,0.2-0.04,0.4-0.11,0.58c-0.08,0.18-0.18,0.34-0.31,0.48c-0.13,0.14-0.29,0.24-0.46,0.32
		c-0.18,0.08-0.37,0.12-0.57,0.12h-4.79v2.75h3.37c0.2,0,0.39,0.04,0.57,0.12c0.18,0.08,0.34,0.19,0.47,0.32
		c0.13,0.14,0.24,0.3,0.32,0.48c0.08,0.19,0.12,0.38,0.12,0.59c0,0.2-0.04,0.4-0.12,0.58c-0.08,0.18-0.19,0.34-0.32,0.48
		c-0.13,0.14-0.29,0.24-0.47,0.32c-0.18,0.08-0.37,0.12-0.57,0.12h-3.37v2.67l4.79,0.01c0.2,0,0.39,0.04,0.57,0.11
		c0.18,0.08,0.33,0.18,0.46,0.32c0.13,0.14,0.24,0.3,0.31,0.48c0.08,0.18,0.11,0.37,0.11,0.58c0,0.21-0.04,0.41-0.11,0.58
		c-0.08,0.18-0.18,0.33-0.31,0.46c-0.13,0.13-0.29,0.23-0.46,0.31c-0.18,0.08-0.37,0.11-0.57,0.11h-6.34
		c-0.19-0.01-0.38-0.05-0.55-0.13c-0.17-0.08-0.32-0.19-0.45-0.32c-0.13-0.13-0.23-0.28-0.3-0.46c-0.07-0.17-0.11-0.36-0.11-0.57
		V6.75c0-0.33,0.09-0.62,0.28-0.88c0.19-0.26,0.43-0.44,0.72-0.55c0.06,0,0.13-0.01,0.21-0.04c0.08-0.03,0.15-0.04,0.21-0.04H88.33z
		"/>
	<path class="st0" d="M95.43,8.15h-2.75c-0.2,0-0.39-0.04-0.56-0.11c-0.17-0.08-0.32-0.18-0.45-0.31c-0.13-0.13-0.23-0.28-0.3-0.46
		c-0.07-0.17-0.11-0.36-0.11-0.57c0-0.2,0.04-0.38,0.11-0.56c0.07-0.17,0.17-0.33,0.3-0.46c0.13-0.13,0.28-0.23,0.45-0.31
		c0.17-0.08,0.36-0.11,0.56-0.11h8.26c0.19,0,0.38,0.04,0.56,0.11c0.18,0.08,0.33,0.18,0.46,0.32c0.13,0.13,0.23,0.29,0.31,0.47
		c0.08,0.18,0.11,0.37,0.11,0.56c0,0.2-0.04,0.39-0.11,0.57c-0.08,0.17-0.18,0.33-0.31,0.45s-0.28,0.23-0.46,0.3
		c-0.18,0.07-0.36,0.11-0.56,0.11h-2.69v10.22c0,0.2-0.04,0.39-0.11,0.57c-0.08,0.17-0.18,0.33-0.31,0.45
		c-0.13,0.13-0.29,0.23-0.46,0.3S97,19.8,96.81,19.8s-0.38-0.04-0.55-0.11c-0.17-0.07-0.32-0.17-0.44-0.3
		c-0.12-0.13-0.22-0.28-0.29-0.45c-0.07-0.17-0.1-0.36-0.1-0.57V8.15z"/>
	<path class="st0" d="M113.98,17.62c0.07,0.19,0.11,0.39,0.11,0.59c0,0.17-0.03,0.35-0.1,0.53c-0.07,0.18-0.17,0.34-0.29,0.47
		c-0.13,0.14-0.28,0.25-0.46,0.34c-0.18,0.09-0.39,0.13-0.62,0.13c-0.29,0-0.56-0.08-0.82-0.25c-0.26-0.16-0.44-0.39-0.56-0.68
		l-0.24-0.6h-5.6l-0.23,0.6c-0.12,0.28-0.3,0.51-0.55,0.68c-0.24,0.17-0.51,0.25-0.81,0.25c-0.22,0-0.43-0.04-0.61-0.13
		c-0.18-0.09-0.34-0.2-0.47-0.34c-0.13-0.14-0.23-0.3-0.3-0.47c-0.07-0.18-0.1-0.36-0.1-0.55c0-0.19,0.04-0.38,0.11-0.57l4.33-11.29
		c0.06-0.21,0.16-0.4,0.31-0.57c0.15-0.17,0.33-0.3,0.55-0.39l0.06-0.02c0.1-0.04,0.2-0.07,0.31-0.08c0.1-0.01,0.19-0.01,0.25-0.01
		c0.09,0,0.18,0.01,0.27,0.03c0.09,0.02,0.17,0.05,0.26,0.08l0.02,0.01c0.09,0.01,0.18,0.07,0.28,0.16c0.1,0.09,0.18,0.17,0.25,0.22
		l0.05,0.05c0.09,0.13,0.16,0.25,0.19,0.35l0.04,0.12L113.98,17.62z M109.83,15.14l-1.63-4.29l-1.64,4.29H109.83z"/>
</g>
<g>
	<path class="st1" d="M28.7,24.41l-0.6,4.53c-0.01,0.09-0.05,0.15-0.12,0.2c-0.07,0.05-0.14,0.07-0.23,0.06
		c-0.09-0.02-0.15-0.06-0.2-0.12c-0.05-0.07-0.07-0.14-0.06-0.23l0.75-5.63c0.01-0.08,0.04-0.14,0.09-0.18
		c0.03-0.03,0.06-0.05,0.11-0.07c0.08-0.03,0.15-0.03,0.23,0c0.08,0.03,0.14,0.09,0.17,0.16l2.03,4.99l2.03-4.99
		c0.03-0.08,0.09-0.13,0.16-0.16c0.08-0.03,0.15-0.03,0.24,0L33.36,23c0.04,0.03,0.07,0.06,0.1,0.1c0.03,0.04,0.04,0.08,0.05,0.13
		l0.71,5.64c0.01,0.09-0.01,0.16-0.06,0.23c-0.05,0.07-0.12,0.1-0.21,0.11c-0.09,0.01-0.16-0.01-0.23-0.06
		c-0.07-0.05-0.11-0.12-0.12-0.2l-0.57-4.5l-1.88,4.61c-0.03,0.07-0.07,0.11-0.13,0.15c-0.06,0.03-0.11,0.05-0.18,0.04
		c-0.06,0-0.11-0.02-0.15-0.05c-0.05-0.03-0.08-0.08-0.11-0.14L28.7,24.41z"/>
	<path class="st1" d="M39.19,27.26h-2.83l-0.75,1.78c-0.04,0.08-0.09,0.14-0.17,0.17c-0.08,0.03-0.16,0.03-0.25-0.01
		c-0.08-0.04-0.14-0.09-0.16-0.17c-0.02-0.08-0.02-0.16,0.02-0.24l2.45-5.68c0.06-0.12,0.15-0.19,0.29-0.19
		c0.06,0,0.12,0.02,0.17,0.05c0.05,0.03,0.09,0.08,0.11,0.14l2.44,5.68c0.04,0.08,0.04,0.16,0.02,0.24
		c-0.02,0.08-0.08,0.13-0.15,0.17c-0.08,0.04-0.16,0.04-0.24,0.01c-0.08-0.03-0.14-0.09-0.18-0.16L39.19,27.26z M36.62,26.63h2.31
		l-1.16-2.72L36.62,26.63z"/>
	<path class="st1" d="M45.69,24.72c0,0.22-0.04,0.43-0.11,0.63c-0.07,0.2-0.18,0.37-0.31,0.52c-0.13,0.15-0.29,0.28-0.47,0.39
		c-0.18,0.1-0.38,0.18-0.59,0.22l1.43,2.28c0.05,0.09,0.05,0.17,0.02,0.25c-0.03,0.08-0.08,0.14-0.16,0.18
		c-0.08,0.04-0.15,0.05-0.23,0.02c-0.08-0.02-0.14-0.07-0.18-0.15l-1.57-2.56h-1.04v2.41c0,0.09-0.03,0.16-0.09,0.22
		c-0.06,0.06-0.13,0.09-0.22,0.09c-0.09,0-0.16-0.03-0.22-0.09c-0.06-0.06-0.09-0.13-0.09-0.22v-5.69c0-0.09,0.03-0.16,0.09-0.22
		c0.06-0.06,0.13-0.09,0.22-0.09h1.65c0.26,0,0.5,0.05,0.73,0.14c0.23,0.09,0.42,0.22,0.59,0.38c0.17,0.16,0.3,0.35,0.4,0.57
		C45.64,24.23,45.69,24.47,45.69,24.72z M42.49,23.53v2.36h1.35c0.18,0,0.34-0.03,0.49-0.1c0.15-0.06,0.28-0.15,0.39-0.26
		c0.11-0.11,0.2-0.23,0.26-0.38c0.06-0.14,0.09-0.29,0.09-0.45c0-0.17-0.03-0.32-0.1-0.47c-0.06-0.14-0.15-0.27-0.26-0.37
		c-0.11-0.1-0.24-0.19-0.39-0.25c-0.15-0.06-0.32-0.09-0.49-0.09H42.49z"/>
	<path class="st1" d="M47.94,25.95l3.19-2.93c0.07-0.06,0.14-0.09,0.22-0.09c0.08,0,0.15,0.04,0.21,0.1
		c0.06,0.06,0.09,0.14,0.09,0.22c0,0.08-0.03,0.16-0.1,0.22l-2.19,2.01l2.17,3.26c0.05,0.08,0.07,0.16,0.05,0.24
		c-0.02,0.08-0.06,0.15-0.13,0.19c-0.07,0.05-0.15,0.06-0.23,0.05c-0.08-0.01-0.15-0.06-0.19-0.13l-2.13-3.18l-0.95,0.88v2.14
		c0,0.09-0.03,0.16-0.09,0.22c-0.06,0.06-0.13,0.09-0.22,0.09c-0.09,0-0.16-0.03-0.22-0.09c-0.06-0.06-0.09-0.13-0.09-0.22v-5.69
		c0-0.09,0.03-0.16,0.09-0.22c0.06-0.06,0.13-0.09,0.22-0.09c0.09,0,0.16,0.03,0.22,0.09s0.09,0.13,0.09,0.22V25.95z"/>
	<path class="st1" d="M53.42,29.22c-0.09-0.01-0.15-0.04-0.21-0.1c-0.05-0.06-0.08-0.13-0.08-0.22v-5.67c0-0.09,0.03-0.17,0.09-0.22
		c0.06-0.06,0.14-0.09,0.23-0.09h2.81c0.09,0,0.16,0.03,0.22,0.09s0.09,0.13,0.09,0.22c0,0.09-0.03,0.16-0.09,0.22
		c-0.06,0.06-0.13,0.09-0.22,0.09h-2.51v2.23h1.85c0.09,0,0.16,0.03,0.22,0.09c0.06,0.06,0.09,0.13,0.09,0.22
		c0,0.09-0.03,0.16-0.09,0.21c-0.06,0.06-0.13,0.09-0.22,0.09h-1.85v2.23h2.51c0.09,0,0.16,0.03,0.22,0.09
		c0.06,0.06,0.09,0.13,0.09,0.22c0,0.09-0.03,0.16-0.09,0.22c-0.06,0.06-0.13,0.09-0.22,0.09H53.42z"/>
	<path class="st1" d="M59.94,23.54v5.38c0,0.09-0.03,0.16-0.09,0.22c-0.06,0.06-0.13,0.09-0.22,0.09c-0.09,0-0.16-0.03-0.21-0.09
		c-0.06-0.06-0.08-0.13-0.08-0.22v-5.38h-1.53c-0.09,0-0.16-0.03-0.22-0.09c-0.06-0.06-0.09-0.13-0.09-0.22
		c0-0.09,0.03-0.16,0.09-0.22c0.06-0.06,0.13-0.09,0.22-0.09h3.71c0.09,0,0.16,0.03,0.22,0.09c0.06,0.06,0.09,0.13,0.09,0.22
		c0,0.09-0.03,0.16-0.09,0.22c-0.06,0.06-0.13,0.09-0.22,0.09H59.94z"/>
	<path class="st1" d="M63.79,28.92c0,0.09-0.03,0.16-0.09,0.22c-0.06,0.06-0.13,0.09-0.22,0.09c-0.09,0-0.16-0.03-0.22-0.09
		c-0.06-0.06-0.09-0.13-0.09-0.22v-5.69c0-0.09,0.03-0.16,0.09-0.22c0.06-0.06,0.13-0.09,0.22-0.09c0.09,0,0.16,0.03,0.22,0.09
		c0.06,0.06,0.09,0.13,0.09,0.22V28.92z"/>
	<path class="st1" d="M66.28,24.17l-0.52-0.74c-0.03-0.04-0.05-0.09-0.06-0.15c0-0.06,0-0.11,0.02-0.16
		c0.02-0.05,0.05-0.09,0.09-0.13c0.04-0.04,0.09-0.05,0.15-0.05H66c0.03,0.01,0.07,0.02,0.1,0.03h0.01
		c0.01,0.01,0.01,0.01,0.02,0.01c0.01,0,0.01,0.01,0.02,0.01L66.16,23c0.01,0.01,0.02,0.01,0.03,0.02c0.01,0.01,0.02,0.02,0.03,0.03
		l0.01,0.02l3.44,4.91v-4.75c0-0.09,0.03-0.16,0.09-0.22c0.06-0.06,0.14-0.09,0.22-0.09c0.09,0,0.16,0.03,0.22,0.09
		c0.06,0.06,0.09,0.13,0.09,0.22v5.69c0,0.08-0.02,0.14-0.07,0.2c-0.05,0.06-0.11,0.09-0.18,0.1c-0.01,0-0.03,0-0.06,0
		c-0.09,0-0.17-0.03-0.23-0.09l-0.02-0.03l-0.01-0.01L66.28,24.17v4.75c0,0.09-0.03,0.16-0.09,0.22c-0.06,0.06-0.13,0.09-0.22,0.09
		s-0.16-0.03-0.22-0.09c-0.06-0.06-0.09-0.13-0.09-0.22v-5.68c0-0.09,0.03-0.16,0.09-0.22c0.06-0.06,0.13-0.09,0.22-0.09H66
		c0.04,0.01,0.07,0.02,0.1,0.03h0.01c0.01,0.01,0.01,0.01,0.02,0.01c0.01,0,0.01,0.01,0.02,0.01c0.01,0,0.01,0,0.02,0.01
		c0.04,0.03,0.06,0.06,0.09,0.1c0.02,0.04,0.03,0.09,0.03,0.14V24.17z"/>
	<path class="st1" d="M72.16,26.08c0,0.36,0.07,0.7,0.2,1.01c0.13,0.31,0.32,0.59,0.55,0.82c0.23,0.23,0.5,0.42,0.82,0.55
		c0.31,0.13,0.65,0.2,1.01,0.2c0.29,0,0.56-0.04,0.81-0.12c0.25-0.08,0.47-0.2,0.67-0.35c0.19-0.15,0.36-0.34,0.49-0.55
		c0.13-0.21,0.23-0.46,0.29-0.72h-1.51c-0.09,0-0.16-0.03-0.22-0.09c-0.06-0.06-0.09-0.13-0.09-0.22c0-0.08,0.03-0.15,0.09-0.21
		c0.06-0.06,0.13-0.09,0.22-0.09h1.86c0.09,0,0.17,0.03,0.23,0.09c0.06,0.06,0.09,0.13,0.09,0.22c-0.04,0.38-0.14,0.73-0.3,1.06
		C77.21,28,77,28.28,76.75,28.52c-0.26,0.24-0.56,0.43-0.9,0.56c-0.34,0.14-0.71,0.2-1.11,0.2c-0.29,0-0.58-0.04-0.85-0.11
		c-0.27-0.08-0.53-0.18-0.76-0.32c-0.24-0.14-0.45-0.31-0.64-0.5c-0.19-0.2-0.36-0.41-0.5-0.65c-0.14-0.24-0.24-0.49-0.32-0.77
		c-0.08-0.27-0.11-0.56-0.11-0.85c0-0.29,0.04-0.57,0.11-0.84c0.07-0.27,0.18-0.53,0.31-0.77c0.14-0.24,0.3-0.46,0.49-0.65
		s0.41-0.37,0.64-0.51c0.24-0.14,0.49-0.25,0.76-0.33c0.27-0.08,0.56-0.12,0.86-0.12c0.43,0,0.84,0.08,1.22,0.24
		c0.39,0.16,0.74,0.4,1.06,0.72c0.07,0.06,0.1,0.13,0.1,0.22c0,0.08-0.03,0.15-0.09,0.22c-0.06,0.06-0.13,0.09-0.22,0.09
		c-0.09,0-0.16-0.03-0.22-0.09c-0.26-0.25-0.54-0.44-0.86-0.57s-0.65-0.19-0.98-0.19c-0.35,0-0.68,0.07-0.99,0.2
		c-0.31,0.13-0.58,0.31-0.82,0.54c-0.23,0.23-0.42,0.5-0.56,0.82C72.23,25.37,72.16,25.71,72.16,26.08z"/>
	<path class="st1" d="M83.36,22.92c0.3,0,0.58,0.04,0.85,0.11c0.27,0.07,0.53,0.18,0.76,0.32c0.24,0.14,0.45,0.3,0.65,0.49
		c0.2,0.19,0.36,0.4,0.5,0.64c0.14,0.23,0.24,0.48,0.32,0.76c0.08,0.27,0.12,0.55,0.12,0.85c0,0.44-0.08,0.86-0.25,1.24
		c-0.17,0.38-0.4,0.72-0.69,1c-0.29,0.28-0.63,0.51-1.02,0.67c-0.39,0.16-0.8,0.24-1.25,0.24h-1.03h-0.02
		c-0.09,0-0.16-0.03-0.22-0.09C82.03,29.08,82,29,82,28.92v-5.69c0-0.09,0.03-0.16,0.09-0.22c0.06-0.06,0.13-0.09,0.22-0.09H83.36z
		 M83.38,23.55h-0.76v5.06h0.75c0.36,0,0.69-0.06,1.01-0.19s0.59-0.31,0.82-0.53c0.23-0.23,0.42-0.49,0.55-0.8
		c0.13-0.31,0.2-0.64,0.2-1c0-0.35-0.07-0.69-0.2-0.99c-0.13-0.31-0.32-0.58-0.55-0.8c-0.23-0.23-0.5-0.41-0.82-0.54
		S83.73,23.55,83.38,23.55z"/>
	<path class="st1" d="M88.71,28.92c0,0.09-0.03,0.16-0.09,0.22c-0.06,0.06-0.13,0.09-0.22,0.09s-0.16-0.03-0.22-0.09
		c-0.06-0.06-0.09-0.13-0.09-0.22v-5.69c0-0.09,0.03-0.16,0.09-0.22c0.06-0.06,0.13-0.09,0.22-0.09s0.16,0.03,0.22,0.09
		c0.06,0.06,0.09,0.13,0.09,0.22V28.92z"/>
	<path class="st1" d="M90.77,26.08c0,0.36,0.07,0.7,0.2,1.01c0.13,0.31,0.32,0.59,0.55,0.82c0.23,0.23,0.5,0.42,0.82,0.55
		c0.31,0.13,0.65,0.2,1.01,0.2c0.29,0,0.56-0.04,0.81-0.12c0.25-0.08,0.47-0.2,0.67-0.35c0.19-0.15,0.36-0.34,0.49-0.55
		c0.13-0.21,0.23-0.46,0.29-0.72H94.1c-0.09,0-0.16-0.03-0.22-0.09c-0.06-0.06-0.09-0.13-0.09-0.22c0-0.08,0.03-0.15,0.09-0.21
		c0.06-0.06,0.13-0.09,0.22-0.09h1.86c0.09,0,0.17,0.03,0.23,0.09c0.06,0.06,0.09,0.13,0.09,0.22c-0.04,0.38-0.14,0.73-0.3,1.06
		c-0.16,0.33-0.37,0.61-0.63,0.85c-0.26,0.24-0.56,0.43-0.9,0.56c-0.34,0.14-0.71,0.2-1.11,0.2c-0.29,0-0.58-0.04-0.85-0.11
		c-0.27-0.08-0.53-0.18-0.76-0.32c-0.24-0.14-0.45-0.31-0.64-0.5c-0.19-0.2-0.36-0.41-0.5-0.65c-0.14-0.24-0.24-0.49-0.32-0.77
		c-0.08-0.27-0.11-0.56-0.11-0.85c0-0.29,0.04-0.57,0.11-0.84c0.07-0.27,0.18-0.53,0.31-0.77c0.14-0.24,0.3-0.46,0.49-0.65
		c0.19-0.2,0.41-0.37,0.64-0.51c0.24-0.14,0.49-0.25,0.76-0.33c0.27-0.08,0.56-0.12,0.86-0.12c0.43,0,0.84,0.08,1.22,0.24
		c0.39,0.16,0.74,0.4,1.06,0.72c0.07,0.06,0.1,0.13,0.1,0.22c0,0.08-0.03,0.15-0.09,0.22c-0.06,0.06-0.13,0.09-0.22,0.09
		c-0.09,0-0.16-0.03-0.22-0.09c-0.26-0.25-0.54-0.44-0.86-0.57c-0.32-0.13-0.65-0.19-0.98-0.19c-0.35,0-0.68,0.07-0.99,0.2
		c-0.31,0.13-0.58,0.31-0.82,0.54c-0.23,0.23-0.42,0.5-0.56,0.82C90.84,25.37,90.77,25.71,90.77,26.08z"/>
	<path class="st1" d="M98.43,28.92c0,0.09-0.03,0.16-0.09,0.22c-0.06,0.06-0.13,0.09-0.22,0.09s-0.16-0.03-0.22-0.09
		c-0.06-0.06-0.09-0.13-0.09-0.22v-5.69c0-0.09,0.03-0.16,0.09-0.22c0.06-0.06,0.13-0.09,0.22-0.09s0.16,0.03,0.22,0.09
		c0.06,0.06,0.09,0.13,0.09,0.22V28.92z"/>
	<path class="st1" d="M102.16,23.54v5.38c0,0.09-0.03,0.16-0.09,0.22c-0.06,0.06-0.13,0.09-0.22,0.09c-0.09,0-0.16-0.03-0.21-0.09
		c-0.06-0.06-0.08-0.13-0.08-0.22v-5.38h-1.53c-0.09,0-0.16-0.03-0.22-0.09c-0.06-0.06-0.09-0.13-0.09-0.22
		c0-0.09,0.03-0.16,0.09-0.22c0.06-0.06,0.13-0.09,0.22-0.09h3.71c0.09,0,0.16,0.03,0.22,0.09c0.06,0.06,0.09,0.13,0.09,0.22
		c0,0.09-0.03,0.16-0.09,0.22c-0.06,0.06-0.13,0.09-0.22,0.09H102.16z"/>
	<path class="st1" d="M108.07,27.26h-2.83l-0.75,1.78c-0.04,0.08-0.09,0.14-0.17,0.17c-0.08,0.03-0.16,0.03-0.25-0.01
		c-0.08-0.04-0.14-0.09-0.16-0.17c-0.02-0.08-0.02-0.16,0.02-0.24l2.45-5.68c0.06-0.12,0.15-0.19,0.29-0.19
		c0.06,0,0.12,0.02,0.17,0.05c0.05,0.03,0.09,0.08,0.11,0.14l2.44,5.68c0.04,0.08,0.04,0.16,0.02,0.24
		c-0.02,0.08-0.08,0.13-0.15,0.17c-0.08,0.04-0.16,0.04-0.24,0.01c-0.08-0.03-0.14-0.09-0.18-0.16L108.07,27.26z M105.5,26.63h2.31
		l-1.16-2.72L105.5,26.63z"/>
	<path class="st1" d="M111.37,28.6l2.41,0c0.09,0,0.16,0.03,0.22,0.09c0.06,0.06,0.09,0.13,0.09,0.22c0,0.09-0.03,0.16-0.09,0.22
		c-0.06,0.06-0.13,0.09-0.22,0.09h-2.69h-0.02c-0.09,0-0.16-0.03-0.22-0.09c-0.06-0.06-0.09-0.13-0.09-0.22v-5.69
		c0-0.09,0.03-0.16,0.09-0.22s0.13-0.09,0.22-0.09s0.16,0.03,0.22,0.09c0.06,0.06,0.09,0.13,0.09,0.22V28.6z"/>
</g>
<g>
	<g>
		<g>
			<path class="st2" d="M14.22,23.86c-3.59,0-6.52-2.86-6.52-6.37c0-3.51,2.91-6.36,6.49-6.36c0.44,0,0.81,0.35,0.81,0.79
				s-0.36,0.79-0.81,0.79c-2.69,0-4.88,2.14-4.88,4.78c0,2.64,2.2,4.79,4.91,4.79c0.81,0,1.56-0.2,2.31-0.6
				c0.38-0.21,0.69-0.43,0.91-0.65v-2.58h-4.1c-0.44,0-0.81-0.35-0.81-0.79c0-0.44,0.36-0.79,0.81-0.79h4.91
				c0.44,0,0.81,0.35,0.81,0.79v3.66c0,0.17-0.05,0.33-0.15,0.46c-0.35,0.47-0.88,0.9-1.59,1.29C16.31,23.6,15.3,23.86,14.22,23.86z
				"/>
		</g>
	</g>
	<g>
		<path class="st2" d="M13.82,28.52c0,0.24-0.2,0.44-0.44,0.44c-0.24,0-0.44-0.2-0.44-0.44s0.2-0.44,0.44-0.44
			C13.62,28.08,13.82,28.27,13.82,28.52z"/>
		<path class="st2" d="M23.94,15.6c-0.29,0.15-0.75,0.25-1.13,0.25c-0.88,0-1.75-0.51-2.11-1.24c-0.1-0.19-0.32-0.29-0.52-0.23
			c-0.31,0.09-0.57,0.14-0.82,0.14c-1.59,0-2.88-1.29-2.88-2.88c0-0.25,0.04-0.51,0.14-0.82c0.06-0.21-0.03-0.43-0.23-0.52
			c-0.73-0.36-1.24-1.23-1.24-2.11c0-0.37,0.1-0.84,0.25-1.13c0.06-0.13,0.06-0.28,0-0.4c-0.06-0.13-0.19-0.21-0.33-0.24
			c-0.63-0.1-1.17-0.14-1.69-0.14c-6.12,0-11.35,5.22-11.35,11.35c0,5.32,3.99,10.11,9.28,11.14c0.24,0.05,0.47-0.11,0.52-0.35
			c0.05-0.24-0.11-0.47-0.35-0.52c-4.88-0.95-8.56-5.37-8.56-10.27c0-5.67,4.79-10.46,10.46-10.46c0.32,0,0.66,0.02,1.02,0.06
			c-0.08,0.31-0.13,0.65-0.13,0.96c0,1.08,0.57,2.14,1.41,2.72c-0.06,0.26-0.08,0.5-0.08,0.74c0,2.08,1.69,3.77,3.77,3.77
			c0.24,0,0.48-0.03,0.74-0.08c0.58,0.85,1.64,1.41,2.72,1.41c0.31,0,0.65-0.05,0.96-0.13c0.04,0.36,0.06,0.69,0.06,1.02
			c0,4.9-3.68,9.32-8.56,10.27c-0.24,0.05-0.4,0.28-0.35,0.52c0.05,0.24,0.28,0.4,0.52,0.35c5.29-1.03,9.28-5.83,9.28-11.14
			c0-0.52-0.05-1.06-0.14-1.69C24.53,15.63,24.21,15.46,23.94,15.6z"/>
	</g>
	<path class="st2" d="M5.57,19.32c0,0.24,0.19,0.43,0.43,0.43s0.43-0.19,0.43-0.43c0-0.24-0.19-0.43-0.43-0.43
		S5.57,19.08,5.57,19.32z"/>
	<path class="st2" d="M11.81,15.35c0,0.24,0.19,0.43,0.43,0.43c0.24,0,0.43-0.19,0.43-0.43c0-0.24-0.19-0.43-0.43-0.43
		C12,14.92,11.81,15.11,11.81,15.35z"/>
	<path class="st2" d="M10.67,25.56c0,0.24,0.19,0.43,0.43,0.43c0.24,0,0.43-0.19,0.43-0.43c0-0.24-0.19-0.43-0.43-0.43
		C10.86,25.13,10.67,25.32,10.67,25.56z"/>
</g>
</svg>
