<?xml version="1.0" encoding="utf-8"?>
<!-- Generator: Adobe Illustrator 23.0.0, SVG Export Plug-In . SVG Version: 6.00 Build 0)  -->
<svg version="1.1" id="Capa_1" xmlns="http://www.w3.org/2000/svg" xmlns:xlink="http://www.w3.org/1999/xlink" x="0px" y="0px"
	 viewBox="0 0 200 45" style="enable-background:new 0 0 200 45;" xml:space="preserve">
<style type="text/css">
	.st0{fill:#211915;}
	.st1{fill:#B63423;}
	.st2{fill:#C65133;}
</style>
<g>
	<g>
		<path class="st0" d="M66.21,13.16c0.36,0,0.69,0.07,1,0.2c0.31,0.14,0.59,0.32,0.82,0.54c0.24,0.23,0.42,0.49,0.56,0.79
			c0.13,0.3,0.2,0.63,0.2,0.99v5.77c0,0.4-0.08,0.75-0.24,1.05c-0.16,0.3-0.36,0.58-0.6,0.84c-1.51,1.31-3.03,2.24-4.57,2.79
			c-1.54,0.55-3.15,0.82-4.8,0.82c-1.11-0.01-2.19-0.17-3.24-0.48c-1.05-0.31-2.04-0.74-2.97-1.29c-0.93-0.55-1.77-1.22-2.54-1.99
			c-0.77-0.77-1.43-1.63-1.98-2.58c-0.56-0.95-0.99-1.96-1.29-3.05c-0.31-1.09-0.46-2.22-0.46-3.41c0-1.17,0.15-2.3,0.44-3.4
			c0.29-1.09,0.71-2.12,1.25-3.08c0.54-0.96,1.19-1.83,1.95-2.62c0.76-0.79,1.61-1.46,2.55-2.03c0.94-0.57,1.95-1.01,3.02-1.32
			c1.08-0.32,2.2-0.47,3.38-0.47c1.81,0,3.47,0.32,4.97,0.96c1.5,0.64,2.89,1.59,4.16,2.87c0.25,0.26,0.44,0.54,0.56,0.84
			c0.12,0.3,0.18,0.61,0.18,0.94c0,0.33-0.07,0.66-0.21,0.97c-0.14,0.31-0.33,0.58-0.57,0.81c-0.24,0.23-0.51,0.42-0.83,0.56
			c-0.32,0.14-0.65,0.21-1,0.21c-0.32,0-0.63-0.06-0.92-0.17c-0.29-0.12-0.56-0.3-0.8-0.54c-0.78-0.77-1.64-1.34-2.58-1.7
			c-0.94-0.36-1.91-0.54-2.92-0.54c-1.02,0-1.99,0.2-2.9,0.59c-0.91,0.39-1.72,0.93-2.4,1.62c-0.69,0.69-1.24,1.5-1.64,2.44
			c-0.4,0.94-0.6,1.95-0.6,3.03c0,1.04,0.2,2.03,0.59,2.96c0.39,0.93,0.93,1.75,1.61,2.45c0.68,0.7,1.49,1.26,2.43,1.67
			c0.93,0.41,1.95,0.62,3.05,0.62c0.87,0,1.7-0.11,2.49-0.33c0.79-0.22,1.56-0.62,2.32-1.19v-2.04H61.6c-0.36,0-0.69-0.07-1-0.2
			c-0.31-0.14-0.57-0.32-0.79-0.55c-0.22-0.23-0.4-0.51-0.53-0.82c-0.13-0.32-0.19-0.65-0.19-0.99c0-0.35,0.06-0.68,0.19-0.99
			c0.13-0.31,0.3-0.59,0.53-0.83c0.22-0.24,0.49-0.43,0.79-0.57c0.31-0.14,0.64-0.2,1-0.2L66.21,13.16z"/>
		<path class="st0" d="M93.16,23.11c0.13,0.33,0.19,0.68,0.19,1.04c0,0.31-0.06,0.62-0.18,0.94c-0.12,0.32-0.29,0.6-0.52,0.84
			c-0.22,0.24-0.5,0.44-0.82,0.6c-0.33,0.15-0.69,0.23-1.1,0.23c-0.51,0-0.99-0.15-1.45-0.43c-0.45-0.29-0.78-0.69-0.99-1.21
			l-0.42-1.06h-9.91l-0.4,1.06c-0.22,0.5-0.54,0.9-0.97,1.2c-0.43,0.3-0.9,0.44-1.43,0.44c-0.4,0-0.76-0.08-1.08-0.23
			c-0.33-0.15-0.6-0.35-0.83-0.6c-0.23-0.24-0.41-0.52-0.53-0.84c-0.12-0.32-0.18-0.64-0.18-0.98c0-0.33,0.06-0.67,0.19-1
			l7.66-19.99c0.1-0.37,0.28-0.71,0.55-1.01s0.58-0.53,0.97-0.69l0.11-0.04c0.18-0.08,0.36-0.12,0.55-0.14
			c0.18-0.01,0.34-0.02,0.45-0.02c0.17,0,0.33,0.02,0.48,0.05c0.15,0.03,0.31,0.08,0.46,0.15l0.04,0.02
			c0.15,0.03,0.32,0.12,0.5,0.28c0.18,0.16,0.33,0.29,0.44,0.4l0.1,0.1c0.17,0.23,0.28,0.44,0.34,0.62l0.08,0.21L93.16,23.11z
			 M85.83,18.73l-2.89-7.59l-2.91,7.59H85.83z"/>
		<path class="st0" d="M97.5,3.72c0-0.36,0.07-0.7,0.2-1c0.13-0.31,0.32-0.58,0.55-0.8c0.23-0.23,0.5-0.4,0.81-0.53
			c0.31-0.13,0.64-0.19,0.99-0.19c0.36,0,0.69,0.06,1,0.19c0.31,0.13,0.57,0.31,0.8,0.53c0.23,0.23,0.41,0.49,0.55,0.8
			c0.13,0.31,0.2,0.64,0.2,1v17.9l8.69,0.02c0.36,0,0.69,0.07,1,0.2c0.31,0.14,0.57,0.32,0.8,0.55c0.23,0.23,0.41,0.5,0.54,0.81
			c0.13,0.31,0.19,0.64,0.19,1c0,0.37-0.06,0.71-0.19,1.02c-0.13,0.31-0.31,0.58-0.54,0.8c-0.23,0.23-0.5,0.4-0.8,0.52
			s-0.64,0.18-1,0.18H99.94c-0.33-0.01-0.65-0.09-0.95-0.22c-0.3-0.14-0.56-0.32-0.78-0.54c-0.22-0.23-0.39-0.49-0.52-0.79
			c-0.13-0.3-0.19-0.63-0.19-0.98V3.72z"/>
		<path class="st0" d="M118.79,3.72c0-0.36,0.07-0.7,0.2-1c0.13-0.31,0.32-0.58,0.55-0.8c0.23-0.23,0.5-0.4,0.81-0.53
			c0.31-0.13,0.64-0.19,0.99-0.19c0.36,0,0.69,0.06,1,0.19c0.31,0.13,0.57,0.31,0.8,0.53c0.23,0.23,0.41,0.49,0.55,0.8
			c0.13,0.31,0.2,0.64,0.2,1v17.9l8.69,0.02c0.36,0,0.69,0.07,1,0.2c0.31,0.14,0.57,0.32,0.8,0.55c0.23,0.23,0.41,0.5,0.54,0.81
			c0.13,0.31,0.19,0.64,0.19,1c0,0.37-0.06,0.71-0.19,1.02c-0.13,0.31-0.31,0.58-0.54,0.8c-0.23,0.23-0.5,0.4-0.8,0.52
			c-0.31,0.12-0.64,0.18-1,0.18h-11.35c-0.33-0.01-0.65-0.09-0.95-0.22c-0.3-0.14-0.56-0.32-0.78-0.54
			c-0.22-0.23-0.39-0.49-0.52-0.79c-0.13-0.3-0.19-0.63-0.19-0.98V3.72z"/>
		<path class="st0" d="M153.79,1.21c0.36,0,0.69,0.07,1,0.21c0.31,0.14,0.59,0.33,0.82,0.57c0.24,0.24,0.42,0.52,0.56,0.85
			c0.13,0.33,0.2,0.68,0.2,1.04c0,0.36-0.07,0.7-0.2,1.03c-0.13,0.32-0.32,0.6-0.56,0.84c-0.24,0.24-0.51,0.43-0.82,0.57
			c-0.31,0.14-0.65,0.21-1,0.21h-8.48v4.87h5.97c0.36,0,0.7,0.07,1.01,0.21c0.32,0.14,0.6,0.33,0.83,0.57
			c0.24,0.24,0.42,0.52,0.56,0.85s0.21,0.68,0.21,1.04c0,0.36-0.07,0.7-0.21,1.03c-0.14,0.32-0.33,0.6-0.56,0.84
			c-0.24,0.24-0.51,0.43-0.83,0.57c-0.32,0.14-0.66,0.21-1.01,0.21h-5.97v4.73l8.48,0.02c0.36,0,0.69,0.07,1,0.2
			c0.31,0.14,0.59,0.33,0.82,0.57c0.24,0.24,0.42,0.53,0.56,0.85c0.13,0.32,0.2,0.66,0.2,1.02c0,0.37-0.07,0.72-0.2,1.03
			c-0.13,0.32-0.32,0.59-0.56,0.82c-0.24,0.23-0.51,0.42-0.82,0.55c-0.31,0.13-0.65,0.2-1,0.2h-11.22
			c-0.34-0.01-0.67-0.09-0.98-0.23c-0.31-0.14-0.57-0.33-0.8-0.56c-0.23-0.23-0.41-0.5-0.54-0.81c-0.13-0.31-0.19-0.64-0.19-1.01
			V3.88c0-0.58,0.17-1.1,0.5-1.57s0.76-0.79,1.28-0.97c0.1,0,0.22-0.02,0.36-0.07c0.14-0.04,0.26-0.07,0.36-0.07H153.79z"/>
		<path class="st0" d="M166.37,6.35h-4.86c-0.36,0-0.69-0.07-1-0.2c-0.31-0.14-0.57-0.32-0.8-0.55c-0.23-0.23-0.41-0.5-0.54-0.81
			c-0.13-0.31-0.19-0.64-0.19-1c0-0.35,0.06-0.68,0.19-0.99c0.13-0.31,0.31-0.58,0.54-0.81c0.23-0.23,0.5-0.42,0.8-0.55
			c0.31-0.14,0.64-0.2,1-0.2h14.62c0.34,0,0.67,0.07,0.99,0.2c0.31,0.13,0.58,0.32,0.81,0.56c0.23,0.24,0.41,0.52,0.55,0.83
			c0.13,0.32,0.2,0.65,0.2,0.99c0,0.36-0.07,0.7-0.2,1c-0.13,0.31-0.32,0.58-0.55,0.8c-0.23,0.23-0.5,0.4-0.81,0.53
			c-0.31,0.13-0.64,0.19-0.99,0.19h-4.77v18.1c0,0.36-0.07,0.7-0.2,1c-0.13,0.31-0.32,0.58-0.56,0.8c-0.24,0.23-0.51,0.4-0.82,0.53
			c-0.31,0.13-0.64,0.19-0.99,0.19s-0.67-0.06-0.97-0.19c-0.3-0.13-0.56-0.31-0.78-0.53c-0.22-0.23-0.39-0.49-0.51-0.8
			c-0.12-0.31-0.18-0.64-0.18-1V6.35z"/>
		<path class="st0" d="M199.19,23.11c0.13,0.33,0.19,0.68,0.19,1.04c0,0.31-0.06,0.62-0.18,0.94c-0.12,0.32-0.29,0.6-0.52,0.84
			c-0.22,0.24-0.5,0.44-0.82,0.6c-0.33,0.15-0.69,0.23-1.1,0.23c-0.51,0-0.99-0.15-1.44-0.43c-0.45-0.29-0.78-0.69-0.99-1.21
			l-0.42-1.06h-9.91l-0.4,1.06c-0.22,0.5-0.54,0.9-0.97,1.2c-0.43,0.3-0.9,0.44-1.43,0.44c-0.4,0-0.76-0.08-1.08-0.23
			c-0.33-0.15-0.6-0.35-0.83-0.6c-0.23-0.24-0.41-0.52-0.53-0.84c-0.12-0.32-0.18-0.64-0.18-0.98c0-0.33,0.06-0.67,0.19-1
			l7.66-19.99c0.1-0.37,0.28-0.71,0.55-1.01s0.58-0.53,0.97-0.69l0.11-0.04c0.18-0.08,0.36-0.12,0.55-0.14
			c0.18-0.01,0.34-0.02,0.45-0.02c0.17,0,0.33,0.02,0.48,0.05c0.15,0.03,0.31,0.08,0.46,0.15l0.04,0.02
			c0.15,0.03,0.32,0.12,0.5,0.28c0.18,0.16,0.33,0.29,0.44,0.4l0.1,0.1c0.17,0.23,0.28,0.44,0.34,0.62l0.08,0.21L199.19,23.11z
			 M191.86,18.73l-2.89-7.59l-2.91,7.59H191.86z"/>
	</g>
	<g>
		<path class="st1" d="M48.24,35.14l-1.06,8.02c-0.02,0.15-0.09,0.27-0.21,0.36c-0.12,0.09-0.25,0.12-0.4,0.1
			c-0.15-0.03-0.27-0.1-0.36-0.22c-0.09-0.12-0.12-0.25-0.1-0.4l1.32-9.97c0.02-0.13,0.07-0.24,0.17-0.32
			c0.05-0.05,0.11-0.09,0.19-0.13c0.13-0.06,0.27-0.06,0.41,0c0.14,0.06,0.25,0.15,0.31,0.29l3.59,8.84l3.6-8.84
			c0.06-0.13,0.15-0.23,0.29-0.29c0.13-0.06,0.27-0.06,0.42,0l0.1,0.05c0.07,0.05,0.13,0.1,0.17,0.17c0.05,0.07,0.08,0.14,0.09,0.23
			l1.26,9.99c0.02,0.15-0.02,0.28-0.11,0.4c-0.09,0.12-0.22,0.18-0.37,0.2c-0.15,0.02-0.29-0.02-0.4-0.11
			c-0.12-0.09-0.19-0.21-0.2-0.36l-1.01-7.96l-3.33,8.16c-0.05,0.12-0.13,0.2-0.23,0.26c-0.1,0.06-0.2,0.08-0.31,0.07
			c-0.1-0.01-0.19-0.04-0.27-0.09c-0.08-0.06-0.15-0.14-0.2-0.24L48.24,35.14z"/>
		<path class="st1" d="M66.8,40.17H61.8l-1.33,3.15c-0.06,0.15-0.17,0.25-0.3,0.3c-0.14,0.06-0.28,0.05-0.44-0.01
			c-0.15-0.06-0.24-0.17-0.28-0.3c-0.04-0.14-0.03-0.28,0.03-0.42l4.34-10.06c0.1-0.22,0.27-0.33,0.5-0.33
			c0.11,0,0.21,0.03,0.3,0.09c0.09,0.06,0.15,0.14,0.2,0.24l4.32,10.06c0.06,0.15,0.07,0.29,0.03,0.42
			c-0.04,0.14-0.13,0.24-0.27,0.3c-0.14,0.06-0.28,0.07-0.43,0.01c-0.15-0.06-0.25-0.15-0.31-0.29L66.8,40.17z M62.26,39.07h4.08
			l-2.05-4.82L62.26,39.07z"/>
		<path class="st1" d="M78.32,35.69c0,0.4-0.07,0.77-0.2,1.11c-0.13,0.35-0.31,0.65-0.54,0.92c-0.23,0.27-0.51,0.5-0.83,0.68
			c-0.32,0.19-0.67,0.31-1.04,0.38l2.52,4.04c0.08,0.15,0.1,0.3,0.04,0.44c-0.05,0.15-0.15,0.25-0.29,0.31
			c-0.13,0.07-0.27,0.08-0.4,0.04c-0.14-0.04-0.24-0.13-0.32-0.26l-2.78-4.52h-1.84v4.26c0,0.15-0.05,0.28-0.16,0.38
			c-0.11,0.1-0.24,0.16-0.39,0.16s-0.28-0.05-0.39-0.16s-0.16-0.23-0.16-0.38V33.04c0-0.16,0.05-0.29,0.16-0.39
			c0.11-0.1,0.24-0.15,0.39-0.15h2.92c0.46,0,0.89,0.08,1.29,0.24c0.4,0.16,0.75,0.39,1.04,0.67c0.3,0.28,0.53,0.62,0.7,1.01
			C78.23,34.82,78.32,35.24,78.32,35.69z M72.65,33.58v4.17h2.38c0.31,0,0.6-0.06,0.87-0.17c0.27-0.11,0.5-0.27,0.69-0.46
			s0.35-0.41,0.46-0.67c0.11-0.25,0.17-0.52,0.17-0.8c0-0.3-0.06-0.57-0.17-0.82c-0.11-0.25-0.27-0.47-0.46-0.66
			c-0.19-0.19-0.43-0.33-0.7-0.44c-0.27-0.11-0.56-0.16-0.87-0.16H72.65z"/>
		<path class="st1" d="M82.31,37.85l5.64-5.19c0.12-0.11,0.25-0.16,0.4-0.15c0.15,0.01,0.27,0.07,0.38,0.18
			c0.1,0.11,0.16,0.24,0.16,0.39s-0.06,0.28-0.18,0.4l-3.88,3.56l3.85,5.77c0.09,0.13,0.12,0.27,0.09,0.42
			c-0.03,0.15-0.11,0.26-0.23,0.34c-0.13,0.08-0.27,0.11-0.41,0.09c-0.15-0.02-0.26-0.1-0.34-0.24l-3.77-5.63l-1.69,1.55v3.78
			c0,0.15-0.05,0.28-0.16,0.38c-0.11,0.1-0.24,0.16-0.39,0.16c-0.15,0-0.28-0.05-0.39-0.16c-0.11-0.1-0.16-0.23-0.16-0.38V33.04
			c0-0.15,0.05-0.28,0.16-0.38c0.11-0.1,0.24-0.16,0.39-0.16c0.15,0,0.28,0.05,0.39,0.16c0.11,0.1,0.16,0.23,0.16,0.38V37.85z"/>
		<path class="st1" d="M91.99,43.66c-0.15-0.01-0.27-0.07-0.37-0.18s-0.14-0.24-0.14-0.39V33.05c0-0.16,0.06-0.29,0.17-0.4
			c0.11-0.1,0.24-0.15,0.4-0.15h4.97c0.15,0,0.28,0.05,0.38,0.16s0.16,0.24,0.16,0.39c0,0.15-0.05,0.28-0.16,0.39
			c-0.1,0.11-0.23,0.16-0.38,0.16h-4.44v3.95h3.27c0.16-0.01,0.29,0.04,0.39,0.15c0.1,0.11,0.16,0.24,0.16,0.39
			c0,0.15-0.05,0.28-0.16,0.38c-0.1,0.1-0.23,0.15-0.39,0.15h-3.27v3.95h4.44c0.15,0,0.28,0.05,0.38,0.16
			c0.1,0.1,0.16,0.23,0.16,0.38c0,0.16-0.05,0.29-0.16,0.4c-0.1,0.11-0.23,0.16-0.38,0.15H91.99z"/>
		<path class="st1" d="M103.55,33.59v9.52c0,0.15-0.05,0.28-0.16,0.39c-0.1,0.11-0.24,0.16-0.39,0.16c-0.15,0-0.28-0.05-0.37-0.16
			c-0.1-0.11-0.15-0.24-0.15-0.39v-9.52h-2.71c-0.15,0-0.28-0.05-0.38-0.16c-0.1-0.11-0.16-0.24-0.16-0.39
			c0-0.15,0.05-0.28,0.16-0.38c0.1-0.1,0.23-0.16,0.38-0.16h6.56c0.15,0,0.28,0.05,0.38,0.16c0.1,0.11,0.16,0.24,0.16,0.39
			c0,0.16-0.05,0.29-0.16,0.39c-0.1,0.1-0.23,0.15-0.38,0.15H103.55z"/>
		<path class="st1" d="M110.36,43.12c0,0.15-0.05,0.28-0.16,0.38c-0.11,0.1-0.24,0.16-0.39,0.16c-0.15,0-0.28-0.05-0.39-0.16
			c-0.11-0.1-0.16-0.23-0.16-0.38V33.04c0-0.16,0.05-0.29,0.16-0.39c0.11-0.1,0.24-0.15,0.39-0.15c0.15,0,0.28,0.05,0.39,0.15
			c0.11,0.1,0.16,0.23,0.16,0.39V43.12z"/>
		<path class="st1" d="M114.77,34.71l-0.91-1.31c-0.06-0.08-0.09-0.16-0.1-0.27c-0.01-0.1,0-0.2,0.04-0.29
			c0.04-0.09,0.09-0.17,0.16-0.23c0.07-0.06,0.16-0.1,0.27-0.1h0.04c0.06,0.01,0.12,0.03,0.17,0.05h0.02
			c0.01,0.01,0.02,0.02,0.03,0.02c0.01,0,0.02,0.01,0.04,0.02l0.03,0.02c0.02,0.01,0.03,0.03,0.05,0.04
			c0.01,0.02,0.03,0.03,0.05,0.05l0.03,0.04l6.09,8.69v-8.41c0-0.15,0.05-0.28,0.16-0.39c0.11-0.11,0.24-0.16,0.4-0.16
			c0.16,0,0.29,0.05,0.39,0.16c0.1,0.11,0.15,0.24,0.15,0.39v10.06c0,0.13-0.04,0.25-0.13,0.35c-0.08,0.1-0.19,0.16-0.32,0.18
			c-0.02,0.01-0.06,0.01-0.1,0.01c-0.16,0-0.3-0.06-0.41-0.17l-0.03-0.05l-0.03-0.03L114.77,34.71v8.41c0,0.15-0.05,0.28-0.16,0.38
			s-0.24,0.16-0.39,0.16s-0.28-0.05-0.39-0.16c-0.11-0.1-0.16-0.23-0.16-0.38V33.06c0-0.15,0.05-0.28,0.16-0.38
			c0.11-0.1,0.24-0.16,0.39-0.16h0.04c0.06,0.01,0.12,0.03,0.17,0.05h0.02c0.01,0.01,0.02,0.02,0.03,0.02
			c0.01,0,0.02,0.01,0.04,0.02c0.01,0,0.02,0.01,0.03,0.02c0.06,0.05,0.11,0.11,0.15,0.18c0.04,0.08,0.06,0.16,0.06,0.24V34.71z"/>
		<path class="st1" d="M125.18,38.09c0,0.64,0.12,1.24,0.36,1.79c0.24,0.55,0.56,1.04,0.97,1.45c0.41,0.41,0.89,0.74,1.45,0.98
			c0.55,0.24,1.15,0.36,1.79,0.36c0.52,0,1-0.07,1.44-0.22c0.44-0.15,0.83-0.35,1.18-0.62c0.34-0.27,0.64-0.6,0.87-0.98
			c0.24-0.38,0.41-0.81,0.52-1.28h-2.68c-0.15,0-0.28-0.05-0.38-0.16c-0.1-0.11-0.16-0.24-0.16-0.39c0-0.15,0.05-0.27,0.16-0.38
			c0.1-0.11,0.23-0.16,0.38-0.16h3.3c0.16,0.01,0.3,0.06,0.41,0.16c0.11,0.1,0.17,0.23,0.16,0.39c-0.06,0.67-0.24,1.3-0.53,1.88
			c-0.29,0.58-0.66,1.08-1.12,1.5c-0.46,0.42-0.99,0.76-1.6,1c-0.61,0.24-1.26,0.36-1.96,0.36c-0.52,0-1.03-0.07-1.51-0.2
			c-0.48-0.13-0.94-0.32-1.35-0.57c-0.42-0.25-0.8-0.54-1.14-0.89c-0.34-0.35-0.64-0.73-0.88-1.15c-0.24-0.42-0.43-0.87-0.57-1.36
			c-0.13-0.48-0.2-0.98-0.2-1.51c0-0.51,0.07-1.01,0.2-1.49c0.13-0.48,0.32-0.93,0.56-1.36c0.24-0.42,0.53-0.81,0.87-1.15
			c0.34-0.35,0.72-0.65,1.14-0.9c0.42-0.25,0.87-0.44,1.35-0.58c0.48-0.14,0.99-0.2,1.52-0.2c0.76,0,1.48,0.14,2.17,0.42
			c0.68,0.28,1.31,0.7,1.87,1.27c0.12,0.11,0.17,0.24,0.17,0.38c0,0.15-0.06,0.27-0.16,0.38c-0.1,0.1-0.23,0.16-0.38,0.16
			c-0.15,0-0.28-0.05-0.39-0.16c-0.45-0.45-0.96-0.78-1.53-1.01s-1.14-0.34-1.74-0.34c-0.62,0-1.2,0.12-1.75,0.35
			c-0.55,0.23-1.03,0.55-1.45,0.96c-0.42,0.41-0.74,0.89-0.99,1.45C125.3,36.84,125.18,37.44,125.18,38.09z"/>
		<path class="st1" d="M145,32.5c0.52,0,1.03,0.07,1.51,0.2c0.48,0.13,0.94,0.32,1.35,0.56c0.42,0.24,0.8,0.53,1.15,0.87
			c0.35,0.34,0.64,0.71,0.89,1.12c0.24,0.41,0.43,0.86,0.57,1.34c0.14,0.48,0.2,0.98,0.2,1.5c0,0.78-0.15,1.51-0.45,2.19
			c-0.3,0.68-0.7,1.27-1.22,1.77c-0.51,0.5-1.11,0.9-1.8,1.18c-0.69,0.28-1.42,0.43-2.21,0.43h-1.83h-0.04
			c-0.15,0-0.28-0.05-0.39-0.16c-0.11-0.1-0.16-0.23-0.16-0.38V33.04c0-0.16,0.05-0.29,0.16-0.39c0.11-0.1,0.24-0.15,0.39-0.15H145z
			 M145.03,33.61h-1.35v8.95h1.33c0.63,0,1.23-0.11,1.78-0.34c0.55-0.23,1.04-0.54,1.45-0.94c0.41-0.4,0.74-0.87,0.98-1.42
			c0.24-0.54,0.36-1.13,0.36-1.77c0-0.63-0.12-1.21-0.36-1.76c-0.24-0.55-0.56-1.02-0.97-1.42c-0.41-0.4-0.89-0.72-1.45-0.95
			C146.25,33.73,145.66,33.61,145.03,33.61z"/>
		<path class="st1" d="M154.48,43.12c0,0.15-0.05,0.28-0.16,0.38s-0.24,0.16-0.39,0.16s-0.28-0.05-0.39-0.16s-0.16-0.23-0.16-0.38
			V33.04c0-0.16,0.05-0.29,0.16-0.39c0.11-0.1,0.24-0.15,0.39-0.15s0.28,0.05,0.39,0.15c0.11,0.1,0.16,0.23,0.16,0.39V43.12z"/>
		<path class="st1" d="M158.12,38.09c0,0.64,0.12,1.24,0.36,1.79c0.24,0.55,0.56,1.04,0.97,1.45c0.41,0.41,0.89,0.74,1.45,0.98
			c0.55,0.24,1.15,0.36,1.79,0.36c0.52,0,1-0.07,1.44-0.22c0.44-0.15,0.83-0.35,1.18-0.62c0.34-0.27,0.64-0.6,0.87-0.98
			c0.24-0.38,0.41-0.81,0.52-1.28h-2.68c-0.15,0-0.28-0.05-0.38-0.16c-0.1-0.11-0.16-0.24-0.16-0.39c0-0.15,0.05-0.27,0.16-0.38
			c0.1-0.11,0.23-0.16,0.38-0.16h3.3c0.16,0.01,0.3,0.06,0.41,0.16c0.11,0.1,0.17,0.23,0.16,0.39c-0.06,0.67-0.24,1.3-0.53,1.88
			c-0.29,0.58-0.66,1.08-1.12,1.5c-0.46,0.42-0.99,0.76-1.6,1c-0.61,0.24-1.26,0.36-1.96,0.36c-0.52,0-1.03-0.07-1.51-0.2
			c-0.48-0.13-0.94-0.32-1.35-0.57c-0.42-0.25-0.8-0.54-1.14-0.89c-0.34-0.35-0.64-0.73-0.88-1.15c-0.24-0.42-0.43-0.87-0.57-1.36
			c-0.13-0.48-0.2-0.98-0.2-1.51c0-0.51,0.07-1.01,0.2-1.49c0.13-0.48,0.32-0.93,0.56-1.36c0.24-0.42,0.53-0.81,0.87-1.15
			c0.34-0.35,0.72-0.65,1.14-0.9c0.42-0.25,0.87-0.44,1.35-0.58c0.48-0.14,0.99-0.2,1.52-0.2c0.76,0,1.48,0.14,2.17,0.42
			c0.68,0.28,1.31,0.7,1.87,1.27c0.12,0.11,0.17,0.24,0.17,0.38c0,0.15-0.06,0.27-0.16,0.38c-0.1,0.1-0.23,0.16-0.38,0.16
			c-0.15,0-0.28-0.05-0.39-0.16c-0.45-0.45-0.96-0.78-1.53-1.01s-1.14-0.34-1.74-0.34c-0.62,0-1.2,0.12-1.75,0.35
			c-0.55,0.23-1.03,0.55-1.45,0.96c-0.42,0.41-0.74,0.89-0.99,1.45C158.24,36.84,158.12,37.44,158.12,38.09z"/>
		<path class="st1" d="M171.67,43.12c0,0.15-0.05,0.28-0.16,0.38c-0.11,0.1-0.24,0.16-0.39,0.16c-0.15,0-0.28-0.05-0.39-0.16
			c-0.11-0.1-0.16-0.23-0.16-0.38V33.04c0-0.16,0.05-0.29,0.16-0.39c0.11-0.1,0.24-0.15,0.39-0.15c0.15,0,0.28,0.05,0.39,0.15
			c0.11,0.1,0.16,0.23,0.16,0.39V43.12z"/>
		<path class="st1" d="M178.28,33.59v9.52c0,0.15-0.05,0.28-0.16,0.39c-0.1,0.11-0.24,0.16-0.39,0.16c-0.15,0-0.28-0.05-0.37-0.16
			c-0.1-0.11-0.15-0.24-0.15-0.39v-9.52h-2.71c-0.15,0-0.28-0.05-0.38-0.16c-0.1-0.11-0.16-0.24-0.16-0.39
			c0-0.15,0.05-0.28,0.16-0.38c0.1-0.1,0.23-0.16,0.38-0.16h6.56c0.15,0,0.28,0.05,0.38,0.16c0.1,0.11,0.16,0.24,0.16,0.39
			c0,0.16-0.05,0.29-0.16,0.39c-0.1,0.1-0.23,0.15-0.38,0.15H178.28z"/>
		<path class="st1" d="M188.73,40.17h-5.01l-1.33,3.15c-0.06,0.15-0.17,0.25-0.3,0.3c-0.14,0.06-0.28,0.05-0.44-0.01
			c-0.15-0.06-0.24-0.17-0.28-0.3s-0.03-0.28,0.03-0.42l4.34-10.06c0.1-0.22,0.27-0.33,0.5-0.33c0.11,0,0.21,0.03,0.3,0.09
			c0.09,0.06,0.15,0.14,0.2,0.24l4.32,10.06c0.06,0.15,0.07,0.29,0.03,0.42c-0.04,0.14-0.13,0.24-0.27,0.3
			c-0.14,0.06-0.28,0.07-0.43,0.01c-0.15-0.06-0.25-0.15-0.31-0.29L188.73,40.17z M184.19,39.07h4.08l-2.05-4.82L184.19,39.07z"/>
		<path class="st1" d="M194.58,42.56l4.27,0.01c0.15,0,0.28,0.05,0.38,0.16c0.1,0.1,0.16,0.23,0.16,0.38c0,0.16-0.05,0.29-0.16,0.4
			c-0.1,0.11-0.23,0.16-0.38,0.15h-4.77h-0.04c-0.15,0-0.28-0.05-0.39-0.16c-0.11-0.1-0.16-0.23-0.16-0.38V33.05
			c0-0.16,0.05-0.29,0.16-0.39c0.11-0.1,0.24-0.16,0.39-0.16c0.15,0,0.28,0.05,0.39,0.16s0.16,0.24,0.16,0.39V42.56z"/>
	</g>
	<g>
		<g>
			<g>
				<path class="st2" d="M22.61,34.16c-6.36,0-11.54-5.06-11.54-11.28c0-6.21,5.15-11.26,11.49-11.26c0.79,0,1.43,0.63,1.43,1.4
					s-0.64,1.4-1.43,1.4c-4.76,0-8.63,3.79-8.63,8.46c0,4.68,3.9,8.48,8.69,8.48c1.43,0,2.76-0.35,4.08-1.07
					c0.67-0.36,1.23-0.76,1.61-1.15v-4.57h-7.26c-0.79,0-1.43-0.63-1.43-1.4c0-0.77,0.64-1.4,1.43-1.4h8.69
					c0.79,0,1.43,0.63,1.43,1.4v6.47c0,0.29-0.09,0.58-0.27,0.82c-0.61,0.83-1.56,1.6-2.81,2.28
					C26.32,33.69,24.53,34.16,22.61,34.16z"/>
			</g>
		</g>
		<g>
			<path class="st2" d="M21.9,42.41c0,0.43-0.35,0.78-0.78,0.78c-0.43,0-0.78-0.35-0.78-0.78s0.35-0.78,0.78-0.78
				C21.54,41.62,21.9,41.98,21.9,42.41z"/>
			<path class="st2" d="M39.81,19.53c-0.51,0.26-1.33,0.44-1.99,0.44c-1.56,0-3.1-0.9-3.74-2.19c-0.17-0.34-0.56-0.51-0.93-0.4
				c-0.55,0.16-1.01,0.24-1.46,0.24c-2.81,0-5.1-2.29-5.1-5.1c0-0.44,0.08-0.91,0.24-1.46c0.11-0.37-0.06-0.76-0.4-0.93
				c-1.29-0.64-2.19-2.18-2.19-3.74c0-0.66,0.18-1.48,0.44-1.99c0.11-0.22,0.11-0.49,0-0.71c-0.11-0.22-0.33-0.38-0.58-0.42
				c-1.12-0.17-2.07-0.25-2.99-0.25c-10.82,0-20.08,9.24-20.08,20.08c0,9.42,7.06,17.9,16.42,19.73c0.43,0.08,0.84-0.19,0.92-0.62
				c0.08-0.43-0.19-0.84-0.62-0.92C9.11,39.61,2.6,31.79,2.6,23.11C2.6,13.07,11.07,4.6,21.11,4.6c0.57,0,1.16,0.03,1.8,0.11
				c-0.15,0.55-0.23,1.15-0.23,1.7c0,1.9,1,3.79,2.5,4.81c-0.1,0.46-0.15,0.88-0.15,1.31c0,3.68,2.99,6.67,6.67,6.67
				c0.42,0,0.85-0.05,1.31-0.15c1.02,1.5,2.91,2.5,4.81,2.5c0.55,0,1.15-0.09,1.7-0.23c0.07,0.64,0.11,1.23,0.11,1.8
				c0,8.68-6.51,16.5-15.15,18.19c-0.43,0.08-0.7,0.5-0.62,0.92c0.08,0.43,0.5,0.7,0.92,0.62c9.36-1.83,16.42-10.31,16.42-19.73
				c0-0.93-0.08-1.88-0.25-2.99C40.86,19.59,40.29,19.29,39.81,19.53z"/>
		</g>
		<path class="st2" d="M7.29,26.12c0,0.42,0.34,0.77,0.77,0.77c0.42,0,0.77-0.34,0.77-0.77s-0.34-0.77-0.77-0.77
			C7.63,25.36,7.29,25.7,7.29,26.12z"/>
		<path class="st2" d="M18.34,19.09c0,0.42,0.34,0.76,0.76,0.76c0.42,0,0.76-0.34,0.76-0.76c0-0.42-0.34-0.76-0.76-0.76
			C18.68,18.33,18.34,18.67,18.34,19.09z"/>
		<path class="st2" d="M16.33,37.17c0,0.42,0.34,0.76,0.76,0.76c0.42,0,0.76-0.34,0.76-0.76s-0.34-0.76-0.76-0.76
			C16.67,36.4,16.33,36.75,16.33,37.17z"/>
	</g>
</g>
</svg>
