<?xml version="1.0" encoding="utf-8"?>
<!-- Generator: Adobe Illustrator 23.0.0, SVG Export Plug-In . SVG Version: 6.00 Build 0)  -->
<svg version="1.1" id="Capa_1" xmlns="http://www.w3.org/2000/svg" xmlns:xlink="http://www.w3.org/1999/xlink" x="0px" y="0px"
	 viewBox="0 0 800 800" style="enable-background:new 0 0 800 800;" xml:space="preserve">
<style type="text/css">
	.st0{fill:#211915;}
	.st1{fill:#B63423;}
	.st2{fill:#C65133;}
	.st3{fill:#C65138;}
</style>
<g>
	<g>
		<path class="st0" d="M199.86,577.4c1.26,0,2.44,0.24,3.54,0.71c1.1,0.48,2.07,1.11,2.9,1.91c0.83,0.8,1.49,1.73,1.96,2.79
			c0.47,1.07,0.71,2.24,0.71,3.51v20.37c0,1.41-0.28,2.65-0.84,3.71c-0.56,1.07-1.27,2.05-2.13,2.96
			c-5.31,4.63-10.69,7.91-16.13,9.84c-5.45,1.93-11.09,2.9-16.95,2.9c-3.92-0.05-7.73-0.61-11.44-1.7
			c-3.71-1.09-7.2-2.61-10.46-4.56c-3.26-1.95-6.24-4.29-8.94-7.02c-2.7-2.72-5.03-5.76-6.99-9.09s-3.48-6.92-4.56-10.76
			c-1.08-3.84-1.62-7.84-1.62-12.02c0-4.13,0.52-8.13,1.55-11.99c1.03-3.86,2.51-7.48,4.42-10.86c1.91-3.38,4.21-6.46,6.89-9.23
			c2.68-2.77,5.67-5.15,8.98-7.15c3.31-2,6.86-3.55,10.67-4.67c3.8-1.11,7.77-1.67,11.92-1.67c6.39,0,12.23,1.12,17.52,3.37
			c5.29,2.25,10.18,5.62,14.68,10.11c0.9,0.91,1.56,1.9,1.99,2.96c0.43,1.07,0.64,2.17,0.64,3.3c0,1.18-0.25,2.32-0.74,3.41
			c-0.49,1.09-1.16,2.04-1.99,2.86c-0.83,0.82-1.81,1.48-2.94,1.98c-1.13,0.5-2.3,0.75-3.52,0.75c-1.13,0-2.21-0.2-3.24-0.61
			c-1.04-0.41-1.98-1.04-2.84-1.91c-2.75-2.72-5.78-4.72-9.09-5.99c-3.31-1.27-6.75-1.91-10.31-1.91c-3.6,0-7.02,0.69-10.24,2.08
			c-3.22,1.38-6.05,3.29-8.48,5.71c-2.43,2.43-4.36,5.3-5.78,8.61c-1.42,3.31-2.13,6.87-2.13,10.68c0,3.67,0.69,7.15,2.06,10.44
			c1.38,3.29,3.27,6.17,5.68,8.64s5.27,4.43,8.56,5.88c3.29,1.45,6.88,2.18,10.76,2.18c3.06,0,5.99-0.38,8.78-1.15
			c2.79-0.77,5.51-2.17,8.17-4.2v-7.18h-7.29c-1.26,0-2.43-0.24-3.51-0.71c-1.08-0.48-2.01-1.12-2.8-1.94
			c-0.79-0.82-1.41-1.78-1.86-2.9c-0.45-1.11-0.68-2.28-0.68-3.51c0-1.23,0.22-2.38,0.68-3.47c0.45-1.09,1.07-2.07,1.86-2.93
			c0.79-0.86,1.72-1.53,2.8-2.01c1.08-0.48,2.25-0.72,3.51-0.72L199.86,577.4z"/>
		<path class="st0" d="M294.91,612.48c0.45,1.18,0.67,2.41,0.67,3.68c0,1.09-0.21,2.19-0.64,3.3c-0.43,1.11-1.04,2.1-1.82,2.96
			c-0.79,0.86-1.76,1.57-2.9,2.11c-1.15,0.54-2.44,0.82-3.88,0.82c-1.8,0-3.5-0.51-5.1-1.53c-1.6-1.02-2.76-2.44-3.48-4.26
			l-1.48-3.75h-34.97l-1.42,3.75c-0.77,1.77-1.9,3.18-3.41,4.22c-1.51,1.05-3.18,1.57-5.03,1.57c-1.4,0-2.67-0.27-3.81-0.82
			c-1.15-0.55-2.13-1.25-2.94-2.11c-0.81-0.86-1.43-1.85-1.86-2.96c-0.43-1.11-0.64-2.26-0.64-3.44c0-1.18,0.22-2.36,0.67-3.54
			l27-70.5c0.36-1.32,1-2.51,1.92-3.58s2.06-1.87,3.41-2.42l0.4-0.14c0.63-0.27,1.27-0.43,1.92-0.48c0.65-0.05,1.18-0.07,1.59-0.07
			c0.58,0,1.15,0.06,1.69,0.17c0.54,0.11,1.08,0.28,1.62,0.51l0.14,0.07c0.54,0.09,1.12,0.42,1.76,0.99
			c0.63,0.57,1.15,1.03,1.55,1.4l0.34,0.34c0.58,0.82,0.99,1.54,1.21,2.18l0.27,0.75L294.91,612.48z M269.05,597.02l-10.19-26.77
			l-10.26,26.77H269.05z"/>
		<path class="st0" d="M310.23,544.09c0-1.27,0.24-2.45,0.71-3.54c0.47-1.09,1.11-2.03,1.92-2.83c0.81-0.79,1.77-1.42,2.87-1.87
			c1.1-0.45,2.26-0.68,3.48-0.68c1.26,0,2.43,0.23,3.51,0.68c1.08,0.45,2.02,1.08,2.83,1.87c0.81,0.79,1.45,1.74,1.92,2.83
			c0.47,1.09,0.71,2.27,0.71,3.54v63.14l30.65,0.07c1.26,0,2.43,0.24,3.51,0.71c1.08,0.48,2.03,1.12,2.84,1.94
			c0.81,0.82,1.44,1.77,1.89,2.86c0.45,1.09,0.67,2.27,0.67,3.54c0,1.32-0.23,2.52-0.67,3.61c-0.45,1.09-1.08,2.03-1.89,2.83
			c-0.81,0.79-1.76,1.41-2.84,1.84c-1.08,0.43-2.25,0.65-3.51,0.65H318.8c-1.17-0.04-2.29-0.31-3.34-0.78
			c-1.06-0.48-1.97-1.11-2.73-1.91c-0.77-0.79-1.37-1.73-1.82-2.79c-0.45-1.07-0.67-2.21-0.67-3.44V544.09z"/>
		<path class="st0" d="M385.3,544.09c0-1.27,0.24-2.45,0.71-3.54c0.47-1.09,1.11-2.03,1.92-2.83c0.81-0.79,1.77-1.42,2.87-1.87
			c1.1-0.45,2.26-0.68,3.48-0.68c1.26,0,2.43,0.23,3.51,0.68c1.08,0.45,2.02,1.08,2.83,1.87c0.81,0.79,1.45,1.74,1.92,2.83
			c0.47,1.09,0.71,2.27,0.71,3.54v63.14l30.65,0.07c1.26,0,2.43,0.24,3.51,0.71c1.08,0.48,2.03,1.12,2.84,1.94
			c0.81,0.82,1.44,1.77,1.89,2.86c0.45,1.09,0.67,2.27,0.67,3.54c0,1.32-0.23,2.52-0.67,3.61c-0.45,1.09-1.08,2.03-1.89,2.83
			c-0.81,0.79-1.76,1.41-2.84,1.84c-1.08,0.43-2.25,0.65-3.51,0.65h-40.03c-1.17-0.04-2.29-0.31-3.34-0.78
			c-1.06-0.48-1.97-1.11-2.73-1.91c-0.77-0.79-1.37-1.73-1.82-2.79c-0.45-1.07-0.67-2.21-0.67-3.44V544.09z"/>
		<path class="st0" d="M508.77,535.24c1.26,0,2.44,0.25,3.54,0.75c1.1,0.5,2.07,1.17,2.9,2.02c0.83,0.84,1.48,1.85,1.96,3.01
			c0.47,1.16,0.71,2.38,0.71,3.66c0,1.28-0.24,2.49-0.71,3.62c-0.47,1.14-1.13,2.13-1.96,2.97c-0.83,0.84-1.8,1.52-2.9,2.02
			c-1.1,0.5-2.29,0.75-3.54,0.75h-29.91v17.17h21.06c1.26,0,2.45,0.25,3.58,0.75c1.12,0.5,2.1,1.17,2.94,2.02
			c0.83,0.84,1.5,1.84,1.99,3.01c0.49,1.16,0.74,2.38,0.74,3.66c0,1.28-0.25,2.48-0.74,3.62c-0.49,1.14-1.16,2.13-1.99,2.97
			c-0.83,0.84-1.81,1.52-2.94,2.02c-1.13,0.5-2.32,0.75-3.58,0.75h-21.06v16.69l29.91,0.07c1.26,0,2.44,0.24,3.54,0.71
			c1.1,0.48,2.07,1.15,2.9,2.01c0.83,0.86,1.48,1.86,1.96,3c0.47,1.14,0.71,2.34,0.71,3.61c0,1.32-0.24,2.53-0.71,3.64
			c-0.47,1.11-1.13,2.08-1.96,2.9c-0.83,0.82-1.8,1.46-2.9,1.94c-1.1,0.48-2.29,0.71-3.54,0.71h-39.56
			c-1.22-0.04-2.36-0.32-3.44-0.82c-1.08-0.5-2.02-1.16-2.83-1.98c-0.81-0.82-1.44-1.77-1.89-2.86c-0.45-1.09-0.68-2.27-0.68-3.55
			v-71.44c0-2.05,0.58-3.88,1.76-5.52c1.17-1.64,2.68-2.77,4.52-3.41c0.36,0,0.79-0.08,1.28-0.24c0.49-0.16,0.92-0.24,1.28-0.24
			H508.77z"/>
		<path class="st0" d="M553.11,553.36h-17.15c-1.26,0-2.43-0.24-3.51-0.71c-1.08-0.48-2.03-1.12-2.84-1.94
			c-0.81-0.82-1.44-1.77-1.89-2.86c-0.45-1.09-0.68-2.27-0.68-3.54c0-1.23,0.23-2.38,0.68-3.47c0.45-1.09,1.08-2.04,1.89-2.86
			c0.81-0.82,1.76-1.46,2.84-1.94c1.08-0.48,2.25-0.72,3.51-0.72h51.58c1.22,0,2.37,0.24,3.48,0.72c1.1,0.48,2.06,1.14,2.87,1.97
			c0.81,0.84,1.45,1.82,1.92,2.93c0.47,1.11,0.71,2.28,0.71,3.51c0,1.27-0.24,2.45-0.71,3.54c-0.47,1.09-1.11,2.03-1.92,2.83
			c-0.81,0.79-1.77,1.42-2.87,1.87c-1.1,0.45-2.26,0.68-3.48,0.68h-16.81v63.83c0,1.27-0.24,2.45-0.71,3.54
			c-0.47,1.09-1.13,2.03-1.96,2.83c-0.83,0.8-1.8,1.42-2.9,1.87c-1.1,0.45-2.26,0.68-3.48,0.68c-1.22,0-2.35-0.23-3.41-0.68
			c-1.06-0.45-1.97-1.08-2.73-1.87c-0.77-0.79-1.36-1.74-1.79-2.83c-0.43-1.09-0.64-2.27-0.64-3.54V553.36z"/>
		<path class="st0" d="M668.89,612.48c0.45,1.18,0.67,2.41,0.67,3.68c0,1.09-0.21,2.19-0.64,3.3c-0.43,1.11-1.04,2.1-1.82,2.96
			c-0.79,0.86-1.76,1.57-2.9,2.11c-1.15,0.54-2.44,0.82-3.88,0.82c-1.8,0-3.5-0.51-5.1-1.53c-1.6-1.02-2.76-2.44-3.48-4.26
			l-1.48-3.75h-34.97l-1.42,3.75c-0.77,1.77-1.9,3.18-3.41,4.22c-1.51,1.05-3.18,1.57-5.03,1.57c-1.4,0-2.67-0.27-3.81-0.82
			c-1.15-0.55-2.13-1.25-2.94-2.11c-0.81-0.86-1.43-1.85-1.86-2.96c-0.43-1.11-0.64-2.26-0.64-3.44c0-1.18,0.23-2.36,0.68-3.54
			l27-70.5c0.36-1.32,1-2.51,1.92-3.58s2.06-1.87,3.41-2.42l0.4-0.14c0.63-0.27,1.27-0.43,1.92-0.48c0.65-0.05,1.18-0.07,1.59-0.07
			c0.58,0,1.15,0.06,1.69,0.17c0.54,0.11,1.08,0.28,1.62,0.51l0.14,0.07c0.54,0.09,1.12,0.42,1.76,0.99
			c0.63,0.57,1.15,1.03,1.55,1.4l0.34,0.34c0.58,0.82,0.99,1.54,1.22,2.18l0.27,0.75L668.89,612.48z M643.03,597.02l-10.19-26.77
			l-10.26,26.77H643.03z"/>
	</g>
	<g>
		<path class="st1" d="M136.49,654.92l-3.75,28.28c-0.08,0.53-0.33,0.95-0.75,1.26c-0.42,0.31-0.9,0.43-1.43,0.37
			c-0.53-0.1-0.96-0.36-1.27-0.77c-0.32-0.41-0.44-0.88-0.35-1.41l4.67-35.16c0.06-0.47,0.26-0.85,0.58-1.14
			c0.16-0.16,0.39-0.32,0.68-0.46c0.47-0.21,0.96-0.21,1.46-0.02c0.5,0.19,0.86,0.54,1.09,1.03l12.68,31.17l12.68-31.17
			c0.2-0.47,0.54-0.81,1.01-1.01c0.47-0.21,0.96-0.21,1.47,0l0.34,0.18c0.25,0.16,0.45,0.36,0.61,0.6c0.16,0.24,0.27,0.51,0.31,0.81
			l4.45,35.22c0.06,0.53-0.07,1-0.4,1.41c-0.33,0.41-0.76,0.65-1.29,0.71c-0.53,0.06-1.01-0.07-1.43-0.38
			c-0.42-0.32-0.66-0.74-0.72-1.28l-3.56-28.09l-11.73,28.77c-0.18,0.41-0.45,0.72-0.8,0.92c-0.35,0.2-0.72,0.29-1.11,0.25
			c-0.35-0.02-0.67-0.13-0.97-0.32c-0.3-0.19-0.53-0.48-0.69-0.85L136.49,654.92z"/>
		<path class="st1" d="M201.94,672.66h-17.65l-4.7,11.13c-0.23,0.51-0.58,0.87-1.08,1.06c-0.49,0.19-1,0.18-1.53-0.05
			c-0.51-0.23-0.84-0.58-1-1.08s-0.12-0.98,0.11-1.48l15.32-35.47c0.35-0.78,0.94-1.17,1.78-1.17c0.39,0,0.74,0.1,1.04,0.31
			c0.31,0.21,0.54,0.49,0.71,0.86l15.23,35.47c0.23,0.51,0.26,1.01,0.11,1.49s-0.48,0.83-0.97,1.06c-0.49,0.23-0.99,0.24-1.5,0.05
			c-0.51-0.19-0.88-0.54-1.11-1.03L201.94,672.66z M185.92,668.78h14.4l-7.22-17L185.92,668.78z"/>
		<path class="st1" d="M242.56,656.86c0,1.39-0.23,2.7-0.69,3.92c-0.46,1.22-1.1,2.31-1.92,3.26c-0.82,0.95-1.79,1.76-2.92,2.41
			c-1.13,0.66-2.36,1.11-3.68,1.35l8.9,14.26c0.29,0.53,0.34,1.06,0.15,1.57c-0.18,0.51-0.52,0.88-1.01,1.11
			c-0.47,0.25-0.95,0.29-1.43,0.14c-0.48-0.15-0.86-0.46-1.12-0.91l-9.79-15.95h-6.48v15.03c0,0.53-0.19,0.98-0.57,1.35
			s-0.83,0.55-1.37,0.55c-0.53,0-0.99-0.18-1.37-0.55c-0.38-0.37-0.57-0.82-0.57-1.35v-35.53c0-0.55,0.19-1.01,0.57-1.37
			c0.38-0.36,0.83-0.54,1.37-0.54h10.32c1.62,0,3.13,0.29,4.54,0.86s2.64,1.36,3.68,2.37c1.04,1,1.87,2.19,2.47,3.57
			C242.26,653.78,242.56,655.26,242.56,656.86z M222.58,649.42v14.72h8.41c1.11,0,2.13-0.2,3.07-0.6c0.94-0.4,1.76-0.94,2.44-1.61
			c0.69-0.68,1.22-1.46,1.61-2.35c0.39-0.89,0.58-1.83,0.58-2.81c0-1.04-0.2-2.01-0.6-2.9c-0.4-0.89-0.94-1.67-1.63-2.32
			c-0.69-0.66-1.5-1.17-2.46-1.55c-0.95-0.38-1.98-0.57-3.09-0.57H222.58z"/>
		<path class="st1" d="M256.62,664.48l19.89-18.32c0.41-0.39,0.87-0.57,1.4-0.54c0.52,0.03,0.97,0.24,1.34,0.63
			c0.37,0.39,0.55,0.85,0.55,1.37s-0.21,0.99-0.64,1.4l-13.69,12.54l13.57,20.35c0.33,0.47,0.43,0.97,0.32,1.49
			c-0.11,0.52-0.38,0.93-0.81,1.21c-0.45,0.29-0.94,0.39-1.46,0.31c-0.52-0.08-0.93-0.36-1.21-0.83l-13.29-19.86l-5.96,5.47v13.34
			c0,0.53-0.19,0.98-0.57,1.35c-0.38,0.37-0.83,0.55-1.37,0.55s-0.99-0.18-1.37-0.55c-0.38-0.37-0.57-0.82-0.57-1.35v-35.53
			c0-0.53,0.19-0.98,0.57-1.35c0.38-0.37,0.83-0.55,1.37-0.55s0.99,0.18,1.37,0.55c0.38,0.37,0.57,0.82,0.57,1.35V664.48z"/>
		<path class="st1" d="M290.79,684.95c-0.53-0.04-0.96-0.25-1.29-0.63c-0.33-0.38-0.49-0.83-0.49-1.37v-35.41
			c0-0.57,0.2-1.04,0.58-1.4c0.39-0.36,0.86-0.54,1.41-0.54h17.53c0.53,0,0.98,0.18,1.35,0.55c0.37,0.37,0.55,0.83,0.55,1.38
			c0,0.53-0.18,0.99-0.55,1.37c-0.37,0.38-0.82,0.57-1.35,0.57h-15.66v13.92h11.54c0.55-0.02,1.01,0.16,1.38,0.54
			c0.37,0.38,0.55,0.84,0.55,1.37c0,0.53-0.18,0.98-0.55,1.34c-0.37,0.36-0.83,0.54-1.38,0.54h-11.54v13.92h15.66
			c0.53,0,0.98,0.18,1.35,0.55c0.37,0.37,0.55,0.82,0.55,1.35c0,0.55-0.18,1.02-0.55,1.4c-0.37,0.38-0.82,0.56-1.35,0.54H290.79z"/>
		<path class="st1" d="M331.54,649.45v33.56c0,0.53-0.18,0.99-0.55,1.37c-0.37,0.38-0.83,0.57-1.38,0.57
			c-0.53,0-0.97-0.19-1.32-0.57c-0.35-0.38-0.52-0.83-0.52-1.37v-33.56h-9.55c-0.53,0-0.98-0.19-1.35-0.57
			c-0.37-0.38-0.55-0.83-0.55-1.37c0-0.53,0.18-0.98,0.55-1.35c0.37-0.37,0.82-0.55,1.35-0.55h23.15c0.53,0,0.98,0.19,1.35,0.57
			c0.37,0.38,0.55,0.83,0.55,1.37c0,0.55-0.18,1.01-0.55,1.37c-0.37,0.36-0.82,0.54-1.35,0.54H331.54z"/>
		<path class="st1" d="M355.58,683.05c0,0.53-0.19,0.98-0.57,1.35s-0.83,0.55-1.37,0.55s-0.99-0.18-1.37-0.55s-0.57-0.82-0.57-1.35
			v-35.53c0-0.55,0.19-1.01,0.57-1.37c0.38-0.36,0.83-0.54,1.37-0.54s0.99,0.18,1.37,0.54c0.38,0.36,0.57,0.81,0.57,1.37V683.05z"/>
		<path class="st1" d="M371.11,653.39l-3.22-4.61c-0.2-0.27-0.32-0.58-0.35-0.94c-0.03-0.36,0.01-0.7,0.14-1.01
			c0.12-0.32,0.31-0.59,0.57-0.81c0.26-0.23,0.57-0.34,0.94-0.34h0.15c0.2,0.04,0.41,0.1,0.61,0.18H370
			c0.04,0.04,0.08,0.07,0.12,0.08c0.04,0.01,0.08,0.04,0.12,0.08l0.12,0.06c0.06,0.04,0.12,0.09,0.17,0.15
			c0.05,0.06,0.11,0.12,0.17,0.18l0.09,0.15l21.49,30.64v-29.66c0-0.53,0.19-0.99,0.57-1.37c0.38-0.38,0.84-0.57,1.4-0.57
			c0.55,0,1.01,0.19,1.37,0.57c0.36,0.38,0.54,0.83,0.54,1.37v35.5c0,0.47-0.15,0.88-0.44,1.23c-0.3,0.35-0.67,0.56-1.12,0.65
			c-0.08,0.02-0.2,0.03-0.37,0.03c-0.57,0-1.05-0.19-1.44-0.58l-0.12-0.18l-0.09-0.09L371.11,653.39v29.66
			c0,0.53-0.19,0.98-0.57,1.35s-0.83,0.55-1.37,0.55s-0.99-0.18-1.37-0.55s-0.57-0.82-0.57-1.35v-35.47c0-0.53,0.19-0.98,0.57-1.35
			s0.83-0.55,1.37-0.55h0.15c0.23,0.04,0.43,0.1,0.61,0.18H370c0.04,0.04,0.08,0.07,0.12,0.08c0.04,0.01,0.08,0.04,0.12,0.08
			c0.04,0,0.08,0.02,0.12,0.06c0.23,0.16,0.4,0.38,0.54,0.65c0.13,0.27,0.2,0.55,0.2,0.86V653.39z"/>
		<path class="st1" d="M407.83,665.31c0,2.25,0.42,4.36,1.26,6.32c0.84,1.96,1.98,3.66,3.42,5.12c1.44,1.46,3.14,2.6,5.1,3.44
			c1.95,0.84,4.06,1.26,6.31,1.26c1.82,0,3.51-0.26,5.07-0.77c1.55-0.51,2.94-1.24,4.16-2.2c1.22-0.95,2.24-2.1,3.07-3.44
			c0.83-1.34,1.44-2.84,1.83-4.5h-9.46c-0.53,0-0.98-0.19-1.35-0.57c-0.37-0.38-0.55-0.83-0.55-1.37c0-0.51,0.18-0.96,0.55-1.34
			c0.37-0.38,0.82-0.57,1.35-0.57h11.64c0.57,0.02,1.06,0.21,1.46,0.55c0.4,0.35,0.59,0.81,0.57,1.38
			c-0.23,2.38-0.84,4.58-1.86,6.62c-1.01,2.04-2.33,3.81-3.94,5.3c-1.62,1.5-3.49,2.67-5.63,3.52c-2.14,0.85-4.45,1.28-6.92,1.28
			c-1.84,0-3.62-0.24-5.33-0.71c-1.71-0.47-3.3-1.14-4.77-2.01c-1.47-0.87-2.81-1.92-4.02-3.14c-1.21-1.22-2.24-2.57-3.1-4.06
			c-0.86-1.48-1.53-3.08-2-4.78c-0.47-1.7-0.71-3.47-0.71-5.32c0-1.8,0.23-3.55,0.69-5.26c0.46-1.7,1.11-3.29,1.96-4.78
			c0.85-1.49,1.88-2.84,3.09-4.07c1.21-1.23,2.55-2.28,4.02-3.17c1.47-0.88,3.07-1.56,4.77-2.04c1.71-0.48,3.49-0.72,5.36-0.72
			c2.68,0,5.23,0.5,7.64,1.49c2.42,0.99,4.62,2.49,6.6,4.47c0.41,0.39,0.61,0.84,0.6,1.35c-0.01,0.51-0.2,0.96-0.57,1.35
			c-0.37,0.37-0.82,0.56-1.35,0.57c-0.53,0.01-0.99-0.18-1.38-0.57c-1.6-1.58-3.39-2.77-5.39-3.57c-2-0.8-4.04-1.2-6.12-1.2
			c-2.17,0-4.23,0.41-6.17,1.23c-1.95,0.82-3.65,1.95-5.11,3.4c-1.46,1.44-2.63,3.15-3.49,5.12S407.83,663.04,407.83,665.31z"/>
		<path class="st1" d="M477.77,645.61c1.84,0,3.62,0.23,5.33,0.69c1.71,0.46,3.3,1.12,4.77,1.97c1.47,0.85,2.83,1.87,4.05,3.06
			c1.23,1.19,2.27,2.51,3.13,3.96c0.86,1.46,1.53,3.03,2.01,4.72c0.48,1.69,0.72,3.46,0.72,5.3c0,2.77-0.53,5.34-1.58,7.73
			c-1.05,2.39-2.49,4.47-4.3,6.24c-1.81,1.77-3.93,3.16-6.36,4.17c-2.43,1-5.02,1.51-7.78,1.51h-6.45h-0.15
			c-0.53,0-0.99-0.18-1.37-0.55c-0.38-0.37-0.57-0.82-0.57-1.35v-35.53c0-0.55,0.19-1.01,0.57-1.37c0.38-0.36,0.83-0.54,1.37-0.54
			H477.77z M477.86,649.51h-4.76v31.57h4.7c2.23,0,4.32-0.4,6.28-1.2c1.95-0.8,3.66-1.91,5.11-3.32c1.45-1.41,2.6-3.08,3.44-4.99
			c0.84-1.92,1.26-4,1.26-6.26c0-2.21-0.42-4.28-1.26-6.21c-0.84-1.93-1.98-3.6-3.42-5.01c-1.44-1.41-3.14-2.53-5.1-3.35
			S480.07,649.51,477.86,649.51z"/>
		<path class="st1" d="M511.17,683.05c0,0.53-0.19,0.98-0.57,1.35s-0.83,0.55-1.37,0.55c-0.53,0-0.99-0.18-1.37-0.55
			c-0.38-0.37-0.57-0.82-0.57-1.35v-35.53c0-0.55,0.19-1.01,0.57-1.37c0.38-0.36,0.83-0.54,1.37-0.54c0.53,0,0.99,0.18,1.37,0.54
			c0.38,0.36,0.57,0.81,0.57,1.37V683.05z"/>
		<path class="st1" d="M524.04,665.31c0,2.25,0.42,4.36,1.26,6.32c0.84,1.96,1.98,3.66,3.42,5.12c1.44,1.46,3.14,2.6,5.1,3.44
			c1.95,0.84,4.06,1.26,6.31,1.26c1.82,0,3.51-0.26,5.07-0.77c1.55-0.51,2.94-1.24,4.16-2.2c1.22-0.95,2.24-2.1,3.07-3.44
			c0.83-1.34,1.44-2.84,1.83-4.5h-9.46c-0.53,0-0.98-0.19-1.35-0.57c-0.37-0.38-0.55-0.83-0.55-1.37c0-0.51,0.18-0.96,0.55-1.34
			c0.37-0.38,0.82-0.57,1.35-0.57h11.64c0.57,0.02,1.06,0.21,1.46,0.55c0.4,0.35,0.59,0.81,0.57,1.38
			c-0.22,2.38-0.84,4.58-1.86,6.62c-1.01,2.04-2.33,3.81-3.94,5.3c-1.62,1.5-3.49,2.67-5.63,3.52c-2.14,0.85-4.45,1.28-6.92,1.28
			c-1.84,0-3.62-0.24-5.33-0.71c-1.71-0.47-3.3-1.14-4.77-2.01c-1.47-0.87-2.81-1.92-4.02-3.14c-1.21-1.22-2.24-2.57-3.1-4.06
			c-0.86-1.48-1.53-3.08-2-4.78c-0.47-1.7-0.71-3.47-0.71-5.32c0-1.8,0.23-3.55,0.69-5.26c0.46-1.7,1.11-3.29,1.96-4.78
			c0.85-1.49,1.88-2.84,3.09-4.07c1.21-1.23,2.55-2.28,4.02-3.17c1.47-0.88,3.07-1.56,4.77-2.04c1.71-0.48,3.49-0.72,5.36-0.72
			c2.68,0,5.23,0.5,7.64,1.49c2.42,0.99,4.62,2.49,6.6,4.47c0.41,0.39,0.61,0.84,0.6,1.35c-0.01,0.51-0.2,0.96-0.57,1.35
			c-0.37,0.37-0.82,0.56-1.35,0.57c-0.53,0.01-0.99-0.18-1.38-0.57c-1.6-1.58-3.39-2.77-5.39-3.57c-2-0.8-4.04-1.2-6.12-1.2
			c-2.17,0-4.23,0.41-6.17,1.23c-1.95,0.82-3.65,1.95-5.11,3.4c-1.46,1.44-2.63,3.15-3.49,5.12
			C524.47,660.92,524.04,663.04,524.04,665.31z"/>
		<path class="st1" d="M571.81,683.05c0,0.53-0.19,0.98-0.57,1.35c-0.38,0.37-0.83,0.55-1.37,0.55s-0.99-0.18-1.37-0.55
			c-0.38-0.37-0.57-0.82-0.57-1.35v-35.53c0-0.55,0.19-1.01,0.57-1.37c0.38-0.36,0.83-0.54,1.37-0.54s0.99,0.18,1.37,0.54
			c0.38,0.36,0.57,0.81,0.57,1.37V683.05z"/>
		<path class="st1" d="M595.14,649.45v33.56c0,0.53-0.18,0.99-0.55,1.37c-0.37,0.38-0.83,0.57-1.38,0.57
			c-0.53,0-0.97-0.19-1.32-0.57c-0.35-0.38-0.52-0.83-0.52-1.37v-33.56h-9.55c-0.53,0-0.98-0.19-1.35-0.57
			c-0.37-0.38-0.55-0.83-0.55-1.37c0-0.53,0.18-0.98,0.55-1.35c0.37-0.37,0.82-0.55,1.35-0.55h23.15c0.53,0,0.98,0.19,1.35,0.57
			c0.37,0.38,0.55,0.83,0.55,1.37c0,0.55-0.18,1.01-0.55,1.37c-0.37,0.36-0.82,0.54-1.35,0.54H595.14z"/>
		<path class="st1" d="M631.98,672.66h-17.65l-4.7,11.13c-0.23,0.51-0.58,0.87-1.08,1.06c-0.49,0.19-1,0.18-1.53-0.05
			c-0.51-0.23-0.84-0.58-1-1.08c-0.15-0.49-0.12-0.98,0.11-1.48l15.32-35.47c0.35-0.78,0.94-1.17,1.78-1.17
			c0.39,0,0.74,0.1,1.04,0.31c0.31,0.21,0.54,0.49,0.71,0.86l15.23,35.47c0.23,0.51,0.26,1.01,0.11,1.49
			c-0.15,0.48-0.48,0.83-0.97,1.06c-0.49,0.23-0.99,0.24-1.5,0.05c-0.51-0.19-0.88-0.54-1.11-1.03L631.98,672.66z M615.96,668.78
			h14.4l-7.22-17L615.96,668.78z"/>
		<path class="st1" d="M652.62,681.08l15.04,0.03c0.53,0,0.98,0.18,1.35,0.55c0.37,0.37,0.55,0.82,0.55,1.35
			c0,0.55-0.18,1.02-0.55,1.4c-0.37,0.38-0.82,0.56-1.35,0.54h-16.83h-0.15c-0.53,0-0.99-0.18-1.37-0.55s-0.57-0.82-0.57-1.35v-35.5
			c0-0.55,0.19-1.01,0.57-1.38s0.83-0.55,1.37-0.55c0.53,0,0.99,0.18,1.37,0.55s0.57,0.83,0.57,1.38V681.08z"/>
	</g>
	<g>
		<g>
			<g>
				<path class="st2" d="M405.46,415.02c-63.44,0-115.05-50.45-115.05-112.45c0-61.89,51.38-112.24,114.53-112.24
					c7.85,0,14.22,6.24,14.22,13.95s-6.37,13.95-14.22,13.95c-47.47,0-86.09,37.84-86.09,84.35c0,46.63,38.85,84.56,86.61,84.56
					c14.21,0,27.53-3.48,40.71-10.63c6.72-3.64,12.26-7.62,16.05-11.48v-45.57H389.8c-7.85,0-14.22-6.24-14.22-13.95
					s6.37-13.95,14.22-13.95h86.64c7.85,0,14.22,6.24,14.22,13.95v64.55c0,2.93-0.94,5.79-2.7,8.17
					c-6.11,8.29-15.54,15.92-28.03,22.69C442.43,410.41,424.61,415.02,405.46,415.02z"/>
			</g>
		</g>
		<g>
			<path class="st3" d="M398.35,497.31c0,4.32-3.5,7.82-7.82,7.82s-7.82-3.5-7.82-7.82s3.5-7.82,7.82-7.82
				S398.35,492.99,398.35,497.31z"/>
			<path class="st3" d="M577.01,269.24c-5.08,2.57-13.25,4.36-19.87,4.36c-15.55,0-30.86-8.98-37.24-21.84
				c-1.69-3.41-5.6-5.11-9.25-4.02c-5.47,1.63-10.08,2.4-14.52,2.4c-28.03,0-50.84-22.81-50.84-50.84c0-4.44,0.76-9.05,2.4-14.52
				c1.09-3.65-0.6-7.55-4.02-9.25c-12.86-6.38-21.84-21.7-21.84-37.24c0-6.62,1.79-14.79,4.36-19.87c1.13-2.24,1.12-4.88-0.02-7.11
				c-1.15-2.23-3.29-3.77-5.77-4.15c-11.14-1.71-20.62-2.51-29.85-2.51c-107.93,0-200.24,92.14-200.24,200.24
				c0,93.88,70.38,178.44,163.7,196.69c4.24,0.83,8.35-1.94,9.18-6.18c0.83-4.24-1.93-8.35-6.18-9.18
				c-86.12-16.84-151.06-94.8-151.06-181.34c0-100.06,84.54-184.6,184.6-184.6c5.71,0,11.57,0.34,17.98,1.06
				c-1.48,5.48-2.33,11.47-2.33,16.93c0,18.98,10.01,37.82,24.95,47.99c-1.01,4.57-1.49,8.81-1.49,13.03
				c0,36.66,29.83,66.49,66.49,66.49c4.22,0,8.46-0.48,13.03-1.49c10.17,14.94,29,24.95,47.99,24.95c5.46,0,11.45-0.86,16.93-2.33
				c0.71,6.41,1.06,12.26,1.06,17.98c0,86.54-64.94,164.5-151.06,181.34c-4.24,0.83-7,4.94-6.18,9.18c0.83,4.24,4.94,7.01,9.18,6.18
				c93.33-18.26,163.7-102.82,163.7-196.69c0-9.23-0.8-18.71-2.51-29.85C587.46,269.79,581.76,266.84,577.01,269.24z"/>
		</g>
		<path class="st3" d="M252.75,334.93c0,4.21,3.42,7.63,7.63,7.63c4.21,0,7.63-3.42,7.63-7.63s-3.42-7.63-7.63-7.63
			C256.16,327.3,252.75,330.71,252.75,334.93z"/>
		<path class="st3" d="M362.88,264.84c0,4.21,3.41,7.63,7.63,7.63s7.63-3.41,7.63-7.63s-3.41-7.63-7.63-7.63
			S362.88,260.63,362.88,264.84z"/>
		<path class="st3" d="M342.86,445.06c0,4.21,3.41,7.63,7.63,7.63c4.21,0,7.63-3.41,7.63-7.63s-3.41-7.63-7.63-7.63
			C346.27,437.44,342.86,440.85,342.86,445.06z"/>
	</g>
</g>
</svg>
